<mxfile host="Electron" modified="2024-05-31T19:50:47.650Z" agent="Mozilla/5.0 (Windows NT 10.0; Win64; x64) AppleWebKit/537.36 (KHTML, like Gecko) draw.io/24.2.5 Chrome/120.0.6099.109 Electron/28.1.0 Safari/537.36" etag="4SB1F4DSzDKBbt9zac4o" version="24.2.5" type="device" pages="2">
  <diagram id="R2lEEEUBdFMjLlhIrx00" name="Page-1">
    <mxGraphModel dx="3929" dy="1933" grid="1" gridSize="10" guides="1" tooltips="1" connect="1" arrows="1" fold="1" page="1" pageScale="1" pageWidth="850" pageHeight="1100" math="0" shadow="0" extFonts="Permanent Marker^https://fonts.googleapis.com/css?family=Permanent+Marker">
      <root>
        <mxCell id="0" />
        <mxCell id="1" parent="0" />
        <mxCell id="hbATpXnq9aw3OvOsap_A-1" value="Student" style="whiteSpace=wrap;html=1;align=center;" vertex="1" parent="1">
          <mxGeometry x="-90" y="280" width="100" height="40" as="geometry" />
        </mxCell>
        <mxCell id="hbATpXnq9aw3OvOsap_A-2" value="St_ID" style="ellipse;whiteSpace=wrap;html=1;align=center;fontStyle=4;" vertex="1" parent="1">
          <mxGeometry x="-260" y="200" width="80" height="40" as="geometry" />
        </mxCell>
        <mxCell id="hbATpXnq9aw3OvOsap_A-3" value="Name" style="ellipse;whiteSpace=wrap;html=1;align=center;" vertex="1" parent="1">
          <mxGeometry x="30" y="190" width="80" height="40" as="geometry" />
        </mxCell>
        <mxCell id="hbATpXnq9aw3OvOsap_A-4" value="Fname" style="ellipse;whiteSpace=wrap;html=1;align=center;" vertex="1" parent="1">
          <mxGeometry x="30" y="90" width="80" height="40" as="geometry" />
        </mxCell>
        <mxCell id="hbATpXnq9aw3OvOsap_A-5" value="Lname" style="ellipse;whiteSpace=wrap;html=1;align=center;" vertex="1" parent="1">
          <mxGeometry x="120" y="100" width="80" height="40" as="geometry" />
        </mxCell>
        <mxCell id="hbATpXnq9aw3OvOsap_A-6" value="" style="endArrow=none;html=1;rounded=0;entryX=0.5;entryY=1;entryDx=0;entryDy=0;exitX=1;exitY=0;exitDx=0;exitDy=0;" edge="1" parent="1" source="hbATpXnq9aw3OvOsap_A-3" target="hbATpXnq9aw3OvOsap_A-5">
          <mxGeometry width="50" height="50" relative="1" as="geometry">
            <mxPoint x="400" y="350" as="sourcePoint" />
            <mxPoint x="450" y="300" as="targetPoint" />
          </mxGeometry>
        </mxCell>
        <mxCell id="hbATpXnq9aw3OvOsap_A-7" value="" style="endArrow=none;html=1;rounded=0;entryX=0.5;entryY=1;entryDx=0;entryDy=0;exitX=0.5;exitY=0;exitDx=0;exitDy=0;" edge="1" parent="1" source="hbATpXnq9aw3OvOsap_A-3" target="hbATpXnq9aw3OvOsap_A-4">
          <mxGeometry width="50" height="50" relative="1" as="geometry">
            <mxPoint y="190" as="sourcePoint" />
            <mxPoint x="450" y="300" as="targetPoint" />
          </mxGeometry>
        </mxCell>
        <mxCell id="hbATpXnq9aw3OvOsap_A-8" value="" style="endArrow=none;html=1;rounded=0;entryX=0.26;entryY=1.02;entryDx=0;entryDy=0;exitX=0.9;exitY=-0.08;exitDx=0;exitDy=0;exitPerimeter=0;entryPerimeter=0;" edge="1" parent="1" source="hbATpXnq9aw3OvOsap_A-1" target="hbATpXnq9aw3OvOsap_A-3">
          <mxGeometry width="50" height="50" relative="1" as="geometry">
            <mxPoint x="400" y="350" as="sourcePoint" />
            <mxPoint x="450" y="300" as="targetPoint" />
          </mxGeometry>
        </mxCell>
        <mxCell id="hbATpXnq9aw3OvOsap_A-10" value="Address" style="ellipse;whiteSpace=wrap;html=1;align=center;" vertex="1" parent="1">
          <mxGeometry x="160" y="150" width="80" height="40" as="geometry" />
        </mxCell>
        <mxCell id="hbATpXnq9aw3OvOsap_A-11" value="Login_Account" style="ellipse;whiteSpace=wrap;html=1;align=center;" vertex="1" parent="1">
          <mxGeometry x="-140" y="130" width="90" height="40" as="geometry" />
        </mxCell>
        <mxCell id="hbATpXnq9aw3OvOsap_A-12" value="Age" style="ellipse;whiteSpace=wrap;html=1;align=center;" vertex="1" parent="1">
          <mxGeometry x="-210" y="150" width="60" height="40" as="geometry" />
        </mxCell>
        <mxCell id="hbATpXnq9aw3OvOsap_A-13" value="Super_id" style="ellipse;whiteSpace=wrap;html=1;align=center;" vertex="1" parent="1">
          <mxGeometry x="190" y="200" width="100" height="40" as="geometry" />
        </mxCell>
        <mxCell id="hbATpXnq9aw3OvOsap_A-14" value="" style="endArrow=none;html=1;rounded=0;entryX=0;entryY=1;entryDx=0;entryDy=0;exitX=1;exitY=0;exitDx=0;exitDy=0;" edge="1" parent="1" source="hbATpXnq9aw3OvOsap_A-1" target="hbATpXnq9aw3OvOsap_A-10">
          <mxGeometry width="50" height="50" relative="1" as="geometry">
            <mxPoint x="100" y="350" as="sourcePoint" />
            <mxPoint x="150" y="300" as="targetPoint" />
          </mxGeometry>
        </mxCell>
        <mxCell id="hbATpXnq9aw3OvOsap_A-15" value="" style="endArrow=none;html=1;rounded=0;entryX=0.264;entryY=1.01;entryDx=0;entryDy=0;entryPerimeter=0;exitX=1;exitY=0.5;exitDx=0;exitDy=0;" edge="1" parent="1" source="hbATpXnq9aw3OvOsap_A-1" target="hbATpXnq9aw3OvOsap_A-13">
          <mxGeometry width="50" height="50" relative="1" as="geometry">
            <mxPoint x="100" y="350" as="sourcePoint" />
            <mxPoint x="150" y="300" as="targetPoint" />
          </mxGeometry>
        </mxCell>
        <mxCell id="hbATpXnq9aw3OvOsap_A-16" value="" style="endArrow=none;html=1;rounded=0;entryX=0.649;entryY=1.04;entryDx=0;entryDy=0;entryPerimeter=0;" edge="1" parent="1" source="hbATpXnq9aw3OvOsap_A-1" target="hbATpXnq9aw3OvOsap_A-11">
          <mxGeometry width="50" height="50" relative="1" as="geometry">
            <mxPoint x="100" y="350" as="sourcePoint" />
            <mxPoint x="150" y="300" as="targetPoint" />
          </mxGeometry>
        </mxCell>
        <mxCell id="hbATpXnq9aw3OvOsap_A-17" value="" style="endArrow=none;html=1;rounded=0;entryX=0.625;entryY=1;entryDx=0;entryDy=0;entryPerimeter=0;" edge="1" parent="1" target="hbATpXnq9aw3OvOsap_A-12">
          <mxGeometry width="50" height="50" relative="1" as="geometry">
            <mxPoint x="-50" y="280" as="sourcePoint" />
            <mxPoint x="150" y="300" as="targetPoint" />
          </mxGeometry>
        </mxCell>
        <mxCell id="hbATpXnq9aw3OvOsap_A-18" value="" style="endArrow=none;html=1;rounded=0;entryX=0.5;entryY=1;entryDx=0;entryDy=0;exitX=0;exitY=0.5;exitDx=0;exitDy=0;" edge="1" parent="1" source="hbATpXnq9aw3OvOsap_A-1" target="hbATpXnq9aw3OvOsap_A-2">
          <mxGeometry width="50" height="50" relative="1" as="geometry">
            <mxPoint x="100" y="350" as="sourcePoint" />
            <mxPoint x="150" y="300" as="targetPoint" />
          </mxGeometry>
        </mxCell>
        <mxCell id="hbATpXnq9aw3OvOsap_A-19" value="Instructor" style="whiteSpace=wrap;html=1;align=center;" vertex="1" parent="1">
          <mxGeometry x="-790" y="240" width="100" height="40" as="geometry" />
        </mxCell>
        <mxCell id="hbATpXnq9aw3OvOsap_A-21" value="Ins_ID" style="ellipse;whiteSpace=wrap;html=1;align=center;fontStyle=4;" vertex="1" parent="1">
          <mxGeometry x="-970" y="110" width="70" height="40" as="geometry" />
        </mxCell>
        <mxCell id="hbATpXnq9aw3OvOsap_A-22" value="Ins_Name" style="ellipse;whiteSpace=wrap;html=1;align=center;" vertex="1" parent="1">
          <mxGeometry x="-815" y="40" width="80" height="40" as="geometry" />
        </mxCell>
        <mxCell id="hbATpXnq9aw3OvOsap_A-23" value="Ins_Fname" style="ellipse;whiteSpace=wrap;html=1;align=center;" vertex="1" parent="1">
          <mxGeometry x="-905" y="-80" width="90" height="40" as="geometry" />
        </mxCell>
        <mxCell id="hbATpXnq9aw3OvOsap_A-24" value="" style="endArrow=none;html=1;rounded=0;entryX=0.5;entryY=1;entryDx=0;entryDy=0;exitX=0.25;exitY=0;exitDx=0;exitDy=0;exitPerimeter=0;" edge="1" parent="1" source="hbATpXnq9aw3OvOsap_A-22" target="hbATpXnq9aw3OvOsap_A-23">
          <mxGeometry width="50" height="50" relative="1" as="geometry">
            <mxPoint x="-705" y="160" as="sourcePoint" />
            <mxPoint x="-360" y="220" as="targetPoint" />
          </mxGeometry>
        </mxCell>
        <mxCell id="hbATpXnq9aw3OvOsap_A-25" value="Ins_Lname" style="ellipse;whiteSpace=wrap;html=1;align=center;" vertex="1" parent="1">
          <mxGeometry x="-790" y="-90" width="80" height="40" as="geometry" />
        </mxCell>
        <mxCell id="hbATpXnq9aw3OvOsap_A-26" value="" style="endArrow=none;html=1;rounded=0;entryX=0.388;entryY=1.01;entryDx=0;entryDy=0;exitX=0.345;exitY=0.032;exitDx=0;exitDy=0;exitPerimeter=0;entryPerimeter=0;" edge="1" parent="1" source="hbATpXnq9aw3OvOsap_A-22" target="hbATpXnq9aw3OvOsap_A-25">
          <mxGeometry width="50" height="50" relative="1" as="geometry">
            <mxPoint x="-410" y="270" as="sourcePoint" />
            <mxPoint x="-360" y="220" as="targetPoint" />
          </mxGeometry>
        </mxCell>
        <mxCell id="hbATpXnq9aw3OvOsap_A-27" value="" style="endArrow=none;html=1;rounded=0;entryX=0.5;entryY=1;entryDx=0;entryDy=0;exitX=0.872;exitY=0.02;exitDx=0;exitDy=0;exitPerimeter=0;" edge="1" parent="1" source="hbATpXnq9aw3OvOsap_A-19" target="hbATpXnq9aw3OvOsap_A-22">
          <mxGeometry width="50" height="50" relative="1" as="geometry">
            <mxPoint x="-410" y="270" as="sourcePoint" />
            <mxPoint x="-360" y="220" as="targetPoint" />
          </mxGeometry>
        </mxCell>
        <mxCell id="hbATpXnq9aw3OvOsap_A-28" value="" style="endArrow=none;html=1;rounded=0;entryX=0.5;entryY=1;entryDx=0;entryDy=0;exitX=0.25;exitY=0;exitDx=0;exitDy=0;" edge="1" parent="1" source="hbATpXnq9aw3OvOsap_A-19" target="hbATpXnq9aw3OvOsap_A-21">
          <mxGeometry width="50" height="50" relative="1" as="geometry">
            <mxPoint x="-410" y="270" as="sourcePoint" />
            <mxPoint x="-360" y="220" as="targetPoint" />
          </mxGeometry>
        </mxCell>
        <mxCell id="hbATpXnq9aw3OvOsap_A-29" value="Login_Account" style="ellipse;whiteSpace=wrap;html=1;align=center;" vertex="1" parent="1">
          <mxGeometry x="-755.17" y="-20" width="90" height="40" as="geometry" />
        </mxCell>
        <mxCell id="hbATpXnq9aw3OvOsap_A-30" value="Ins_Dgree" style="ellipse;whiteSpace=wrap;html=1;align=center;" vertex="1" parent="1">
          <mxGeometry x="-700" y="30" width="90" height="40" as="geometry" />
        </mxCell>
        <mxCell id="hbATpXnq9aw3OvOsap_A-31" value="" style="endArrow=none;html=1;rounded=0;entryX=0.351;entryY=0.98;entryDx=0;entryDy=0;entryPerimeter=0;exitX=1;exitY=0.25;exitDx=0;exitDy=0;" edge="1" parent="1" source="hbATpXnq9aw3OvOsap_A-19" target="hbATpXnq9aw3OvOsap_A-30">
          <mxGeometry width="50" height="50" relative="1" as="geometry">
            <mxPoint x="-410" y="270" as="sourcePoint" />
            <mxPoint x="-360" y="220" as="targetPoint" />
          </mxGeometry>
        </mxCell>
        <mxCell id="hbATpXnq9aw3OvOsap_A-32" value="" style="endArrow=none;html=1;rounded=0;entryX=0.396;entryY=1;entryDx=0;entryDy=0;entryPerimeter=0;exitX=1;exitY=0;exitDx=0;exitDy=0;" edge="1" parent="1" source="hbATpXnq9aw3OvOsap_A-19" target="hbATpXnq9aw3OvOsap_A-29">
          <mxGeometry width="50" height="50" relative="1" as="geometry">
            <mxPoint x="-410" y="270" as="sourcePoint" />
            <mxPoint x="-360" y="220" as="targetPoint" />
          </mxGeometry>
        </mxCell>
        <mxCell id="hbATpXnq9aw3OvOsap_A-33" value="Contact_Email" style="ellipse;whiteSpace=wrap;html=1;align=center;" vertex="1" parent="1">
          <mxGeometry x="-940" y="10" width="90" height="40" as="geometry" />
        </mxCell>
        <mxCell id="hbATpXnq9aw3OvOsap_A-34" value="" style="endArrow=none;html=1;rounded=0;entryX=0.724;entryY=1.02;entryDx=0;entryDy=0;entryPerimeter=0;exitX=0.66;exitY=-0.02;exitDx=0;exitDy=0;exitPerimeter=0;" edge="1" parent="1" source="hbATpXnq9aw3OvOsap_A-19" target="hbATpXnq9aw3OvOsap_A-33">
          <mxGeometry width="50" height="50" relative="1" as="geometry">
            <mxPoint x="-530" y="270" as="sourcePoint" />
            <mxPoint x="-480" y="220" as="targetPoint" />
          </mxGeometry>
        </mxCell>
        <mxCell id="hbATpXnq9aw3OvOsap_A-37" value="Salary" style="ellipse;whiteSpace=wrap;html=1;align=center;" vertex="1" parent="1">
          <mxGeometry x="-630" y="80" width="90" height="40" as="geometry" />
        </mxCell>
        <mxCell id="hbATpXnq9aw3OvOsap_A-38" value="" style="endArrow=none;html=1;rounded=0;exitX=1;exitY=0.5;exitDx=0;exitDy=0;entryX=0;entryY=0.5;entryDx=0;entryDy=0;" edge="1" parent="1" source="hbATpXnq9aw3OvOsap_A-19" target="hbATpXnq9aw3OvOsap_A-37">
          <mxGeometry width="50" height="50" relative="1" as="geometry">
            <mxPoint x="-530" y="270" as="sourcePoint" />
            <mxPoint x="-480" y="220" as="targetPoint" />
          </mxGeometry>
        </mxCell>
        <mxCell id="hbATpXnq9aw3OvOsap_A-39" value="Age" style="ellipse;whiteSpace=wrap;html=1;align=center;" vertex="1" parent="1">
          <mxGeometry x="-1060" y="120" width="80" height="40" as="geometry" />
        </mxCell>
        <mxCell id="hbATpXnq9aw3OvOsap_A-42" value="" style="endArrow=none;html=1;rounded=0;entryX=0.5;entryY=1;entryDx=0;entryDy=0;exitX=0;exitY=0.25;exitDx=0;exitDy=0;" edge="1" parent="1" source="hbATpXnq9aw3OvOsap_A-19" target="hbATpXnq9aw3OvOsap_A-39">
          <mxGeometry width="50" height="50" relative="1" as="geometry">
            <mxPoint x="-530" y="270" as="sourcePoint" />
            <mxPoint x="-480" y="220" as="targetPoint" />
          </mxGeometry>
        </mxCell>
        <mxCell id="hbATpXnq9aw3OvOsap_A-43" value="Training_Manager" style="whiteSpace=wrap;html=1;align=center;" vertex="1" parent="1">
          <mxGeometry x="-1400" y="650" width="100" height="40" as="geometry" />
        </mxCell>
        <mxCell id="hbATpXnq9aw3OvOsap_A-45" value="Manager_name" style="ellipse;whiteSpace=wrap;html=1;align=center;" vertex="1" parent="1">
          <mxGeometry x="-1375" y="480" width="90" height="40" as="geometry" />
        </mxCell>
        <mxCell id="hbATpXnq9aw3OvOsap_A-46" value="Manager_ID" style="ellipse;whiteSpace=wrap;html=1;align=center;fontStyle=4;" vertex="1" parent="1">
          <mxGeometry x="-1485" y="480" width="100" height="40" as="geometry" />
        </mxCell>
        <mxCell id="hbATpXnq9aw3OvOsap_A-47" value="" style="endArrow=none;html=1;rounded=0;exitX=0.5;exitY=1;exitDx=0;exitDy=0;entryX=0.136;entryY=0.05;entryDx=0;entryDy=0;entryPerimeter=0;" edge="1" parent="1" source="hbATpXnq9aw3OvOsap_A-46" target="hbATpXnq9aw3OvOsap_A-43">
          <mxGeometry width="50" height="50" relative="1" as="geometry">
            <mxPoint x="-810" y="530" as="sourcePoint" />
            <mxPoint x="-760" y="480" as="targetPoint" />
          </mxGeometry>
        </mxCell>
        <mxCell id="hbATpXnq9aw3OvOsap_A-48" value="" style="endArrow=none;html=1;rounded=0;entryX=0.5;entryY=1;entryDx=0;entryDy=0;exitX=0.5;exitY=0;exitDx=0;exitDy=0;" edge="1" parent="1" source="hbATpXnq9aw3OvOsap_A-43" target="hbATpXnq9aw3OvOsap_A-45">
          <mxGeometry width="50" height="50" relative="1" as="geometry">
            <mxPoint x="-810" y="530" as="sourcePoint" />
            <mxPoint x="-760" y="480" as="targetPoint" />
          </mxGeometry>
        </mxCell>
        <mxCell id="hbATpXnq9aw3OvOsap_A-49" value="Login_Account" style="ellipse;whiteSpace=wrap;html=1;align=center;" vertex="1" parent="1">
          <mxGeometry x="-1275" y="494.21" width="100" height="40" as="geometry" />
        </mxCell>
        <mxCell id="hbATpXnq9aw3OvOsap_A-50" value="Contact_Email" style="ellipse;whiteSpace=wrap;html=1;align=center;" vertex="1" parent="1">
          <mxGeometry x="-1190" y="520" width="100" height="40" as="geometry" />
        </mxCell>
        <mxCell id="hbATpXnq9aw3OvOsap_A-51" value="" style="endArrow=none;html=1;rounded=0;entryX=0.404;entryY=1.04;entryDx=0;entryDy=0;entryPerimeter=0;exitX=0.75;exitY=0;exitDx=0;exitDy=0;" edge="1" parent="1" source="hbATpXnq9aw3OvOsap_A-43" target="hbATpXnq9aw3OvOsap_A-49">
          <mxGeometry width="50" height="50" relative="1" as="geometry">
            <mxPoint x="-810" y="530" as="sourcePoint" />
            <mxPoint x="-760" y="480" as="targetPoint" />
          </mxGeometry>
        </mxCell>
        <mxCell id="hbATpXnq9aw3OvOsap_A-52" value="" style="endArrow=none;html=1;rounded=0;entryX=0.5;entryY=1;entryDx=0;entryDy=0;exitX=1;exitY=0.25;exitDx=0;exitDy=0;" edge="1" parent="1" source="hbATpXnq9aw3OvOsap_A-43" target="hbATpXnq9aw3OvOsap_A-50">
          <mxGeometry width="50" height="50" relative="1" as="geometry">
            <mxPoint x="-810" y="530" as="sourcePoint" />
            <mxPoint x="-760" y="480" as="targetPoint" />
          </mxGeometry>
        </mxCell>
        <mxCell id="hbATpXnq9aw3OvOsap_A-54" value="Course" style="whiteSpace=wrap;html=1;align=center;" vertex="1" parent="1">
          <mxGeometry x="650" y="710" width="100" height="40" as="geometry" />
        </mxCell>
        <mxCell id="hbATpXnq9aw3OvOsap_A-55" value="Crs_ID" style="ellipse;whiteSpace=wrap;html=1;align=center;fontStyle=4;" vertex="1" parent="1">
          <mxGeometry x="460" y="550" width="80" height="40" as="geometry" />
        </mxCell>
        <mxCell id="hbATpXnq9aw3OvOsap_A-56" value="Crs_Name" style="ellipse;whiteSpace=wrap;html=1;align=center;" vertex="1" parent="1">
          <mxGeometry x="560" y="543.99" width="90" height="40" as="geometry" />
        </mxCell>
        <mxCell id="hbATpXnq9aw3OvOsap_A-57" value="Description" style="ellipse;whiteSpace=wrap;html=1;align=center;" vertex="1" parent="1">
          <mxGeometry x="630" y="520" width="90" height="40" as="geometry" />
        </mxCell>
        <mxCell id="hbATpXnq9aw3OvOsap_A-58" value="MinDgree" style="ellipse;whiteSpace=wrap;html=1;align=center;" vertex="1" parent="1">
          <mxGeometry x="770" y="580" width="80" height="40" as="geometry" />
        </mxCell>
        <mxCell id="hbATpXnq9aw3OvOsap_A-59" value="MaxDegree" style="ellipse;whiteSpace=wrap;html=1;align=center;" vertex="1" parent="1">
          <mxGeometry x="860" y="640" width="80" height="40" as="geometry" />
        </mxCell>
        <mxCell id="hbATpXnq9aw3OvOsap_A-60" value="" style="endArrow=none;html=1;rounded=0;entryX=0.5;entryY=1;entryDx=0;entryDy=0;exitX=0;exitY=0;exitDx=0;exitDy=0;" edge="1" parent="1" source="hbATpXnq9aw3OvOsap_A-54" target="hbATpXnq9aw3OvOsap_A-55">
          <mxGeometry width="50" height="50" relative="1" as="geometry">
            <mxPoint x="790" y="770" as="sourcePoint" />
            <mxPoint x="840" y="720" as="targetPoint" />
          </mxGeometry>
        </mxCell>
        <mxCell id="hbATpXnq9aw3OvOsap_A-61" value="" style="endArrow=none;html=1;rounded=0;entryX=0.5;entryY=1;entryDx=0;entryDy=0;exitX=0.106;exitY=-0.02;exitDx=0;exitDy=0;exitPerimeter=0;" edge="1" parent="1" source="hbATpXnq9aw3OvOsap_A-54" target="hbATpXnq9aw3OvOsap_A-56">
          <mxGeometry width="50" height="50" relative="1" as="geometry">
            <mxPoint x="790" y="770" as="sourcePoint" />
            <mxPoint x="609.9700000000003" y="640" as="targetPoint" />
          </mxGeometry>
        </mxCell>
        <mxCell id="hbATpXnq9aw3OvOsap_A-62" value="" style="endArrow=none;html=1;rounded=0;entryX=0.333;entryY=1;entryDx=0;entryDy=0;entryPerimeter=0;exitX=0.418;exitY=-0.06;exitDx=0;exitDy=0;exitPerimeter=0;" edge="1" parent="1" source="hbATpXnq9aw3OvOsap_A-54" target="hbATpXnq9aw3OvOsap_A-57">
          <mxGeometry width="50" height="50" relative="1" as="geometry">
            <mxPoint x="790" y="770" as="sourcePoint" />
            <mxPoint x="840" y="720" as="targetPoint" />
          </mxGeometry>
        </mxCell>
        <mxCell id="hbATpXnq9aw3OvOsap_A-63" value="" style="endArrow=none;html=1;rounded=0;entryX=0.3;entryY=0.99;entryDx=0;entryDy=0;entryPerimeter=0;exitX=1;exitY=0;exitDx=0;exitDy=0;" edge="1" parent="1" source="hbATpXnq9aw3OvOsap_A-54" target="hbATpXnq9aw3OvOsap_A-58">
          <mxGeometry width="50" height="50" relative="1" as="geometry">
            <mxPoint x="790" y="770" as="sourcePoint" />
            <mxPoint x="840" y="720" as="targetPoint" />
          </mxGeometry>
        </mxCell>
        <mxCell id="hbATpXnq9aw3OvOsap_A-64" value="" style="endArrow=none;html=1;rounded=0;entryX=0;entryY=1;entryDx=0;entryDy=0;exitX=1;exitY=0.5;exitDx=0;exitDy=0;" edge="1" parent="1" source="hbATpXnq9aw3OvOsap_A-54" target="hbATpXnq9aw3OvOsap_A-59">
          <mxGeometry width="50" height="50" relative="1" as="geometry">
            <mxPoint x="790" y="770" as="sourcePoint" />
            <mxPoint x="840" y="720" as="targetPoint" />
          </mxGeometry>
        </mxCell>
        <mxCell id="hbATpXnq9aw3OvOsap_A-65" value="Department" style="whiteSpace=wrap;html=1;align=center;" vertex="1" parent="1">
          <mxGeometry x="-1505" y="230" width="100" height="40" as="geometry" />
        </mxCell>
        <mxCell id="hbATpXnq9aw3OvOsap_A-66" value="Dept_Name" style="ellipse;whiteSpace=wrap;html=1;align=center;" vertex="1" parent="1">
          <mxGeometry x="-1480" y="140" width="90" height="40" as="geometry" />
        </mxCell>
        <mxCell id="hbATpXnq9aw3OvOsap_A-67" value="Dept_ID" style="ellipse;whiteSpace=wrap;html=1;align=center;fontStyle=4;" vertex="1" parent="1">
          <mxGeometry x="-1580" y="140" width="90" height="40" as="geometry" />
        </mxCell>
        <mxCell id="hbATpXnq9aw3OvOsap_A-68" value="Dept_Location" style="ellipse;whiteSpace=wrap;html=1;align=center;" vertex="1" parent="1">
          <mxGeometry x="-1375" y="140" width="95" height="40" as="geometry" />
        </mxCell>
        <mxCell id="hbATpXnq9aw3OvOsap_A-69" value="" style="endArrow=none;html=1;rounded=0;entryX=0.649;entryY=1.08;entryDx=0;entryDy=0;entryPerimeter=0;exitX=0.168;exitY=0.02;exitDx=0;exitDy=0;exitPerimeter=0;" edge="1" parent="1" source="hbATpXnq9aw3OvOsap_A-65" target="hbATpXnq9aw3OvOsap_A-67">
          <mxGeometry width="50" height="50" relative="1" as="geometry">
            <mxPoint x="-1160" y="360" as="sourcePoint" />
            <mxPoint x="-1110" y="310" as="targetPoint" />
          </mxGeometry>
        </mxCell>
        <mxCell id="hbATpXnq9aw3OvOsap_A-70" value="" style="endArrow=none;html=1;rounded=0;entryX=0.293;entryY=0.98;entryDx=0;entryDy=0;entryPerimeter=0;exitX=0.392;exitY=-0.04;exitDx=0;exitDy=0;exitPerimeter=0;" edge="1" parent="1" source="hbATpXnq9aw3OvOsap_A-65" target="hbATpXnq9aw3OvOsap_A-66">
          <mxGeometry width="50" height="50" relative="1" as="geometry">
            <mxPoint x="-1460" y="230" as="sourcePoint" />
            <mxPoint x="-1110" y="310" as="targetPoint" />
          </mxGeometry>
        </mxCell>
        <mxCell id="hbATpXnq9aw3OvOsap_A-71" value="" style="endArrow=none;html=1;rounded=0;entryX=0.301;entryY=1.06;entryDx=0;entryDy=0;entryPerimeter=0;exitX=0.75;exitY=0;exitDx=0;exitDy=0;" edge="1" parent="1" source="hbATpXnq9aw3OvOsap_A-65" target="hbATpXnq9aw3OvOsap_A-68">
          <mxGeometry width="50" height="50" relative="1" as="geometry">
            <mxPoint x="-1160" y="360" as="sourcePoint" />
            <mxPoint x="-1110" y="310" as="targetPoint" />
          </mxGeometry>
        </mxCell>
        <mxCell id="hbATpXnq9aw3OvOsap_A-72" value="Manage" style="shape=rhombus;perimeter=rhombusPerimeter;whiteSpace=wrap;html=1;align=center;" vertex="1" parent="1">
          <mxGeometry x="-1700" y="380" width="120" height="60" as="geometry" />
        </mxCell>
        <mxCell id="hbATpXnq9aw3OvOsap_A-75" value="" style="endArrow=none;html=1;rounded=0;exitX=0;exitY=0.5;exitDx=0;exitDy=0;entryX=0;entryY=0.5;entryDx=0;entryDy=0;" edge="1" parent="1" source="hbATpXnq9aw3OvOsap_A-65" target="hbATpXnq9aw3OvOsap_A-72">
          <mxGeometry relative="1" as="geometry">
            <mxPoint x="-1210" y="340" as="sourcePoint" />
            <mxPoint x="-1050" y="340" as="targetPoint" />
          </mxGeometry>
        </mxCell>
        <mxCell id="hbATpXnq9aw3OvOsap_A-76" value="1" style="resizable=0;html=1;whiteSpace=wrap;align=right;verticalAlign=bottom;" connectable="0" vertex="1" parent="hbATpXnq9aw3OvOsap_A-75">
          <mxGeometry x="1" relative="1" as="geometry" />
        </mxCell>
        <mxCell id="hbATpXnq9aw3OvOsap_A-79" value="" style="shape=link;html=1;rounded=0;entryX=1;entryY=0.5;entryDx=0;entryDy=0;exitX=0;exitY=0.75;exitDx=0;exitDy=0;" edge="1" parent="1" source="hbATpXnq9aw3OvOsap_A-19" target="hbATpXnq9aw3OvOsap_A-72">
          <mxGeometry relative="1" as="geometry">
            <mxPoint x="-1210" y="340" as="sourcePoint" />
            <mxPoint x="-1050" y="340" as="targetPoint" />
          </mxGeometry>
        </mxCell>
        <mxCell id="hbATpXnq9aw3OvOsap_A-80" value="1" style="resizable=0;html=1;whiteSpace=wrap;align=right;verticalAlign=bottom;" connectable="0" vertex="1" parent="hbATpXnq9aw3OvOsap_A-79">
          <mxGeometry x="1" relative="1" as="geometry" />
        </mxCell>
        <mxCell id="hbATpXnq9aw3OvOsap_A-81" value="assign_in" style="shape=rhombus;perimeter=rhombusPerimeter;whiteSpace=wrap;html=1;align=center;" vertex="1" parent="1">
          <mxGeometry x="-770" y="330" width="120" height="60" as="geometry" />
        </mxCell>
        <mxCell id="hbATpXnq9aw3OvOsap_A-82" value="" style="shape=link;html=1;rounded=0;entryX=1;entryY=0.5;entryDx=0;entryDy=0;exitX=0;exitY=0.75;exitDx=0;exitDy=0;" edge="1" parent="1" source="hbATpXnq9aw3OvOsap_A-1" target="hbATpXnq9aw3OvOsap_A-81">
          <mxGeometry relative="1" as="geometry">
            <mxPoint x="-520" y="130" as="sourcePoint" />
            <mxPoint x="-360" y="130" as="targetPoint" />
          </mxGeometry>
        </mxCell>
        <mxCell id="hbATpXnq9aw3OvOsap_A-83" value="N" style="resizable=0;html=1;whiteSpace=wrap;align=right;verticalAlign=bottom;" connectable="0" vertex="1" parent="hbATpXnq9aw3OvOsap_A-82">
          <mxGeometry x="1" relative="1" as="geometry" />
        </mxCell>
        <mxCell id="hbATpXnq9aw3OvOsap_A-84" value="" style="endArrow=none;html=1;rounded=0;entryX=0;entryY=0.5;entryDx=0;entryDy=0;exitX=1;exitY=1;exitDx=0;exitDy=0;" edge="1" parent="1" source="hbATpXnq9aw3OvOsap_A-65" target="hbATpXnq9aw3OvOsap_A-81">
          <mxGeometry relative="1" as="geometry">
            <mxPoint x="-520" y="130" as="sourcePoint" />
            <mxPoint x="-360" y="130" as="targetPoint" />
          </mxGeometry>
        </mxCell>
        <mxCell id="hbATpXnq9aw3OvOsap_A-85" value="1" style="resizable=0;html=1;whiteSpace=wrap;align=right;verticalAlign=bottom;" connectable="0" vertex="1" parent="hbATpXnq9aw3OvOsap_A-84">
          <mxGeometry x="1" relative="1" as="geometry" />
        </mxCell>
        <mxCell id="hbATpXnq9aw3OvOsap_A-86" value="teach_By" style="shape=rhombus;perimeter=rhombusPerimeter;whiteSpace=wrap;html=1;align=center;" vertex="1" parent="1">
          <mxGeometry x="90" y="370" width="120" height="60" as="geometry" />
        </mxCell>
        <mxCell id="hbATpXnq9aw3OvOsap_A-87" value="" style="shape=link;html=1;rounded=0;entryX=1;entryY=0.5;entryDx=0;entryDy=0;exitX=0;exitY=0.75;exitDx=0;exitDy=0;" edge="1" parent="1" source="hbATpXnq9aw3OvOsap_A-54" target="hbATpXnq9aw3OvOsap_A-86">
          <mxGeometry relative="1" as="geometry">
            <mxPoint x="370" y="570" as="sourcePoint" />
            <mxPoint x="410" y="530" as="targetPoint" />
          </mxGeometry>
        </mxCell>
        <mxCell id="hbATpXnq9aw3OvOsap_A-88" value="N" style="resizable=0;html=1;whiteSpace=wrap;align=right;verticalAlign=bottom;" connectable="0" vertex="1" parent="hbATpXnq9aw3OvOsap_A-87">
          <mxGeometry x="1" relative="1" as="geometry" />
        </mxCell>
        <mxCell id="hbATpXnq9aw3OvOsap_A-92" value="" style="shape=link;html=1;rounded=0;entryX=0;entryY=0.5;entryDx=0;entryDy=0;exitX=0.75;exitY=1;exitDx=0;exitDy=0;" edge="1" parent="1" source="hbATpXnq9aw3OvOsap_A-19" target="hbATpXnq9aw3OvOsap_A-86">
          <mxGeometry relative="1" as="geometry">
            <mxPoint x="-190" y="530" as="sourcePoint" />
            <mxPoint x="-30" y="530" as="targetPoint" />
          </mxGeometry>
        </mxCell>
        <mxCell id="hbATpXnq9aw3OvOsap_A-93" value="M" style="resizable=0;html=1;whiteSpace=wrap;align=right;verticalAlign=bottom;" connectable="0" vertex="1" parent="hbATpXnq9aw3OvOsap_A-92">
          <mxGeometry x="1" relative="1" as="geometry" />
        </mxCell>
        <mxCell id="hbATpXnq9aw3OvOsap_A-95" value="Branch" style="whiteSpace=wrap;html=1;align=center;" vertex="1" parent="1">
          <mxGeometry x="-630" y="570" width="100" height="40" as="geometry" />
        </mxCell>
        <mxCell id="hbATpXnq9aw3OvOsap_A-96" value="Branch_Name" style="ellipse;whiteSpace=wrap;html=1;align=center;" vertex="1" parent="1">
          <mxGeometry x="-645" y="430.00000000000006" width="85" height="40" as="geometry" />
        </mxCell>
        <mxCell id="hbATpXnq9aw3OvOsap_A-97" value="Branch_id" style="ellipse;whiteSpace=wrap;html=1;align=center;fontStyle=4;" vertex="1" parent="1">
          <mxGeometry x="-740" y="430" width="90" height="40" as="geometry" />
        </mxCell>
        <mxCell id="hbATpXnq9aw3OvOsap_A-99" value="" style="endArrow=none;html=1;rounded=0;entryX=0.15;entryY=-0.09;entryDx=0;entryDy=0;entryPerimeter=0;exitX=0.5;exitY=1;exitDx=0;exitDy=0;" edge="1" parent="1" source="hbATpXnq9aw3OvOsap_A-97" target="hbATpXnq9aw3OvOsap_A-95">
          <mxGeometry width="50" height="50" relative="1" as="geometry">
            <mxPoint x="-700" y="680" as="sourcePoint" />
            <mxPoint x="-790" y="530" as="targetPoint" />
          </mxGeometry>
        </mxCell>
        <mxCell id="hbATpXnq9aw3OvOsap_A-100" value="" style="endArrow=none;html=1;rounded=0;entryX=0.5;entryY=1;entryDx=0;entryDy=0;exitX=0.5;exitY=0;exitDx=0;exitDy=0;" edge="1" parent="1" source="hbATpXnq9aw3OvOsap_A-95" target="hbATpXnq9aw3OvOsap_A-96">
          <mxGeometry width="50" height="50" relative="1" as="geometry">
            <mxPoint x="-840" y="580" as="sourcePoint" />
            <mxPoint x="-790" y="530" as="targetPoint" />
          </mxGeometry>
        </mxCell>
        <mxCell id="hbATpXnq9aw3OvOsap_A-101" value="add_and_edit" style="shape=rhombus;perimeter=rhombusPerimeter;whiteSpace=wrap;html=1;align=center;" vertex="1" parent="1">
          <mxGeometry x="-910" y="430" width="120" height="60" as="geometry" />
        </mxCell>
        <mxCell id="hbATpXnq9aw3OvOsap_A-102" value="" style="endArrow=none;html=1;rounded=0;exitX=0;exitY=0.5;exitDx=0;exitDy=0;entryX=0.5;entryY=1;entryDx=0;entryDy=0;" edge="1" parent="1" source="hbATpXnq9aw3OvOsap_A-101" target="hbATpXnq9aw3OvOsap_A-65">
          <mxGeometry relative="1" as="geometry">
            <mxPoint x="-1210" y="420" as="sourcePoint" />
            <mxPoint x="-1420" y="300" as="targetPoint" />
          </mxGeometry>
        </mxCell>
        <mxCell id="hbATpXnq9aw3OvOsap_A-103" value="N" style="resizable=0;html=1;whiteSpace=wrap;align=right;verticalAlign=bottom;" connectable="0" vertex="1" parent="hbATpXnq9aw3OvOsap_A-102">
          <mxGeometry x="1" relative="1" as="geometry">
            <mxPoint x="540" y="180" as="offset" />
          </mxGeometry>
        </mxCell>
        <mxCell id="hbATpXnq9aw3OvOsap_A-106" value="M" style="resizable=0;html=1;whiteSpace=wrap;align=right;verticalAlign=bottom;" connectable="0" vertex="1" parent="1">
          <mxGeometry x="-920.0007965907423" y="429.99640113641925" as="geometry">
            <mxPoint x="7" y="46" as="offset" />
          </mxGeometry>
        </mxCell>
        <mxCell id="hbATpXnq9aw3OvOsap_A-108" value="" style="endArrow=none;html=1;rounded=0;exitX=0;exitY=0.5;exitDx=0;exitDy=0;entryX=1;entryY=0.5;entryDx=0;entryDy=0;" edge="1" parent="1" source="hbATpXnq9aw3OvOsap_A-95" target="hbATpXnq9aw3OvOsap_A-101">
          <mxGeometry relative="1" as="geometry">
            <mxPoint x="-1210" y="420" as="sourcePoint" />
            <mxPoint x="-620" y="480" as="targetPoint" />
          </mxGeometry>
        </mxCell>
        <mxCell id="hbATpXnq9aw3OvOsap_A-109" value="N" style="resizable=0;html=1;whiteSpace=wrap;align=right;verticalAlign=bottom;" connectable="0" vertex="1" parent="hbATpXnq9aw3OvOsap_A-108">
          <mxGeometry x="1" relative="1" as="geometry">
            <mxPoint x="20" y="30" as="offset" />
          </mxGeometry>
        </mxCell>
        <mxCell id="hbATpXnq9aw3OvOsap_A-110" value="&lt;span style=&quot;color: rgb(240, 240, 240); font-family: Helvetica; font-size: 12px; font-style: normal; font-variant-ligatures: normal; font-variant-caps: normal; font-weight: 400; letter-spacing: normal; orphans: 2; text-align: right; text-indent: 0px; text-transform: none; widows: 2; word-spacing: 0px; -webkit-text-stroke-width: 0px; white-space: nowrap; background-color: rgb(27, 29, 30); text-decoration-thickness: initial; text-decoration-style: initial; text-decoration-color: initial; display: inline !important; float: none;&quot;&gt;M&lt;/span&gt;" style="text;whiteSpace=wrap;html=1;" vertex="1" parent="1">
          <mxGeometry x="-800" y="470" width="50" height="40" as="geometry" />
        </mxCell>
        <mxCell id="hbATpXnq9aw3OvOsap_A-111" value="" style="endArrow=none;html=1;rounded=0;entryX=0.5;entryY=1;entryDx=0;entryDy=0;exitX=1;exitY=0.75;exitDx=0;exitDy=0;" edge="1" parent="1" source="hbATpXnq9aw3OvOsap_A-43" target="hbATpXnq9aw3OvOsap_A-101">
          <mxGeometry relative="1" as="geometry">
            <mxPoint x="-1010" y="420" as="sourcePoint" />
            <mxPoint x="-850" y="420" as="targetPoint" />
          </mxGeometry>
        </mxCell>
        <mxCell id="hbATpXnq9aw3OvOsap_A-112" value="N" style="resizable=0;html=1;whiteSpace=wrap;align=right;verticalAlign=bottom;" connectable="0" vertex="1" parent="hbATpXnq9aw3OvOsap_A-111">
          <mxGeometry x="1" relative="1" as="geometry">
            <mxPoint x="-12" y="9" as="offset" />
          </mxGeometry>
        </mxCell>
        <mxCell id="hbATpXnq9aw3OvOsap_A-116" value="M" style="resizable=0;html=1;whiteSpace=wrap;align=right;verticalAlign=bottom;" connectable="0" vertex="1" parent="1">
          <mxGeometry x="-852.2533980151275" y="509.2093287951052" as="geometry">
            <mxPoint x="2" y="6" as="offset" />
          </mxGeometry>
        </mxCell>
        <mxCell id="hbATpXnq9aw3OvOsap_A-117" value="Track" style="whiteSpace=wrap;html=1;align=center;" vertex="1" parent="1">
          <mxGeometry x="120" y="1010" width="100" height="40" as="geometry" />
        </mxCell>
        <mxCell id="hbATpXnq9aw3OvOsap_A-120" value="Track_ID" style="ellipse;whiteSpace=wrap;html=1;align=center;fontStyle=4;" vertex="1" parent="1">
          <mxGeometry x="110" y="930.79" width="80" height="39.21" as="geometry" />
        </mxCell>
        <mxCell id="hbATpXnq9aw3OvOsap_A-122" value="Track_Name" style="ellipse;whiteSpace=wrap;html=1;align=center;" vertex="1" parent="1">
          <mxGeometry x="240" y="939.9999999999999" width="80" height="35.79" as="geometry" />
        </mxCell>
        <mxCell id="hbATpXnq9aw3OvOsap_A-124" value="" style="endArrow=none;html=1;rounded=0;entryX=0.5;entryY=1;entryDx=0;entryDy=0;" edge="1" parent="1" source="hbATpXnq9aw3OvOsap_A-117" target="hbATpXnq9aw3OvOsap_A-122">
          <mxGeometry width="50" height="50" relative="1" as="geometry">
            <mxPoint x="233" y="994" as="sourcePoint" />
            <mxPoint x="620" y="970" as="targetPoint" />
          </mxGeometry>
        </mxCell>
        <mxCell id="hbATpXnq9aw3OvOsap_A-125" value="" style="endArrow=none;html=1;rounded=0;exitX=0.25;exitY=0;exitDx=0;exitDy=0;" edge="1" parent="1" source="hbATpXnq9aw3OvOsap_A-117">
          <mxGeometry width="50" height="50" relative="1" as="geometry">
            <mxPoint x="570" y="1020" as="sourcePoint" />
            <mxPoint x="160" y="970" as="targetPoint" />
          </mxGeometry>
        </mxCell>
        <mxCell id="hbATpXnq9aw3OvOsap_A-126" value="Add_and_Updetein" style="shape=rhombus;perimeter=rhombusPerimeter;whiteSpace=wrap;html=1;align=center;" vertex="1" parent="1">
          <mxGeometry x="-852.25" y="700" width="120" height="60" as="geometry" />
        </mxCell>
        <mxCell id="hbATpXnq9aw3OvOsap_A-127" value="" style="endArrow=none;html=1;rounded=0;exitX=0.435;exitY=0;exitDx=0;exitDy=0;exitPerimeter=0;" edge="1" parent="1" source="hbATpXnq9aw3OvOsap_A-126" target="hbATpXnq9aw3OvOsap_A-65">
          <mxGeometry relative="1" as="geometry">
            <mxPoint x="-860" y="550" as="sourcePoint" />
            <mxPoint x="-700" y="550" as="targetPoint" />
          </mxGeometry>
        </mxCell>
        <mxCell id="hbATpXnq9aw3OvOsap_A-128" value="N" style="resizable=0;html=1;whiteSpace=wrap;align=right;verticalAlign=bottom;" connectable="0" vertex="1" parent="hbATpXnq9aw3OvOsap_A-127">
          <mxGeometry x="1" relative="1" as="geometry">
            <mxPoint x="625" y="420" as="offset" />
          </mxGeometry>
        </mxCell>
        <mxCell id="hbATpXnq9aw3OvOsap_A-129" value="M" style="resizable=0;html=1;whiteSpace=wrap;align=right;verticalAlign=bottom;" connectable="0" vertex="1" parent="1">
          <mxGeometry x="-774.9990007257816" y="700.0036082477976" as="geometry">
            <mxPoint x="-33" y="7" as="offset" />
          </mxGeometry>
        </mxCell>
        <mxCell id="hbATpXnq9aw3OvOsap_A-130" value="" style="endArrow=none;html=1;rounded=0;exitX=1;exitY=0.5;exitDx=0;exitDy=0;entryX=0;entryY=0.5;entryDx=0;entryDy=0;" edge="1" parent="1" source="hbATpXnq9aw3OvOsap_A-43" target="hbATpXnq9aw3OvOsap_A-126">
          <mxGeometry relative="1" as="geometry">
            <mxPoint x="-1270" y="550" as="sourcePoint" />
            <mxPoint x="-860" y="730" as="targetPoint" />
          </mxGeometry>
        </mxCell>
        <mxCell id="hbATpXnq9aw3OvOsap_A-131" value="N" style="resizable=0;html=1;whiteSpace=wrap;align=right;verticalAlign=bottom;" connectable="0" vertex="1" parent="hbATpXnq9aw3OvOsap_A-130">
          <mxGeometry x="1" relative="1" as="geometry">
            <mxPoint as="offset" />
          </mxGeometry>
        </mxCell>
        <mxCell id="hbATpXnq9aw3OvOsap_A-132" value="M" style="resizable=0;html=1;whiteSpace=wrap;align=right;verticalAlign=bottom;" connectable="0" vertex="1" parent="1">
          <mxGeometry x="-841.7850124324211" y="740.0415399278686" as="geometry">
            <mxPoint x="-11" y="8" as="offset" />
          </mxGeometry>
        </mxCell>
        <mxCell id="hbATpXnq9aw3OvOsap_A-133" value="" style="endArrow=none;html=1;rounded=0;entryX=1;entryY=0.5;entryDx=0;entryDy=0;exitX=0;exitY=0.75;exitDx=0;exitDy=0;" edge="1" parent="1" source="hbATpXnq9aw3OvOsap_A-117" target="hbATpXnq9aw3OvOsap_A-126">
          <mxGeometry relative="1" as="geometry">
            <mxPoint x="-750" y="550" as="sourcePoint" />
            <mxPoint x="-590" y="550" as="targetPoint" />
          </mxGeometry>
        </mxCell>
        <mxCell id="hbATpXnq9aw3OvOsap_A-134" value="N" style="resizable=0;html=1;whiteSpace=wrap;align=right;verticalAlign=bottom;" connectable="0" vertex="1" parent="hbATpXnq9aw3OvOsap_A-133">
          <mxGeometry x="1" relative="1" as="geometry">
            <mxPoint x="12" y="20" as="offset" />
          </mxGeometry>
        </mxCell>
        <mxCell id="hbATpXnq9aw3OvOsap_A-135" value="M" style="resizable=0;html=1;whiteSpace=wrap;align=right;verticalAlign=bottom;" connectable="0" vertex="1" parent="1">
          <mxGeometry x="-710.1738002041895" y="759.9720916378981" as="geometry">
            <mxPoint x="-14" y="-34" as="offset" />
          </mxGeometry>
        </mxCell>
        <mxCell id="hbATpXnq9aw3OvOsap_A-136" value="Intake" style="whiteSpace=wrap;html=1;align=center;" vertex="1" parent="1">
          <mxGeometry x="-375" y="750" width="100" height="40" as="geometry" />
        </mxCell>
        <mxCell id="hbATpXnq9aw3OvOsap_A-137" value="Intake_ID" style="ellipse;whiteSpace=wrap;html=1;align=center;fontStyle=4;" vertex="1" parent="1">
          <mxGeometry x="-460" y="670" width="85" height="40" as="geometry" />
        </mxCell>
        <mxCell id="hbATpXnq9aw3OvOsap_A-138" value="Intake_Name" style="ellipse;whiteSpace=wrap;html=1;align=center;" vertex="1" parent="1">
          <mxGeometry x="-370" y="670" width="90" height="40" as="geometry" />
        </mxCell>
        <mxCell id="hbATpXnq9aw3OvOsap_A-141" value="" style="endArrow=none;html=1;rounded=0;entryX=0.098;entryY=-0.11;entryDx=0;entryDy=0;entryPerimeter=0;exitX=0.5;exitY=1;exitDx=0;exitDy=0;" edge="1" parent="1" source="hbATpXnq9aw3OvOsap_A-137" target="hbATpXnq9aw3OvOsap_A-136">
          <mxGeometry width="50" height="50" relative="1" as="geometry">
            <mxPoint x="-300" y="580" as="sourcePoint" />
            <mxPoint x="-250" y="530" as="targetPoint" />
          </mxGeometry>
        </mxCell>
        <mxCell id="hbATpXnq9aw3OvOsap_A-142" value="" style="endArrow=none;html=1;rounded=0;entryX=0.818;entryY=-0.15;entryDx=0;entryDy=0;entryPerimeter=0;exitX=0.5;exitY=1;exitDx=0;exitDy=0;" edge="1" parent="1" source="hbATpXnq9aw3OvOsap_A-138" target="hbATpXnq9aw3OvOsap_A-136">
          <mxGeometry width="50" height="50" relative="1" as="geometry">
            <mxPoint x="-300" y="580" as="sourcePoint" />
            <mxPoint x="-250" y="530" as="targetPoint" />
          </mxGeometry>
        </mxCell>
        <mxCell id="hbATpXnq9aw3OvOsap_A-143" value="add_new" style="shape=rhombus;perimeter=rhombusPerimeter;whiteSpace=wrap;html=1;align=center;" vertex="1" parent="1">
          <mxGeometry x="-1210" y="830" width="120" height="60" as="geometry" />
        </mxCell>
        <mxCell id="hbATpXnq9aw3OvOsap_A-146" value="" style="shape=link;html=1;rounded=0;entryX=0;entryY=0.5;entryDx=0;entryDy=0;exitX=0.5;exitY=1;exitDx=0;exitDy=0;" edge="1" parent="1" source="hbATpXnq9aw3OvOsap_A-43" target="hbATpXnq9aw3OvOsap_A-143">
          <mxGeometry relative="1" as="geometry">
            <mxPoint x="-1140" y="910" as="sourcePoint" />
            <mxPoint x="-980" y="910" as="targetPoint" />
          </mxGeometry>
        </mxCell>
        <mxCell id="hbATpXnq9aw3OvOsap_A-147" value="N" style="resizable=0;html=1;whiteSpace=wrap;align=right;verticalAlign=bottom;" connectable="0" vertex="1" parent="hbATpXnq9aw3OvOsap_A-146">
          <mxGeometry x="1" relative="1" as="geometry">
            <mxPoint x="10" y="-10" as="offset" />
          </mxGeometry>
        </mxCell>
        <mxCell id="hbATpXnq9aw3OvOsap_A-148" value="" style="shape=link;html=1;rounded=0;entryX=1;entryY=0.5;entryDx=0;entryDy=0;exitX=0;exitY=1;exitDx=0;exitDy=0;" edge="1" parent="1" source="hbATpXnq9aw3OvOsap_A-136" target="hbATpXnq9aw3OvOsap_A-143">
          <mxGeometry relative="1" as="geometry">
            <mxPoint x="-1140" y="910" as="sourcePoint" />
            <mxPoint x="-980" y="910" as="targetPoint" />
          </mxGeometry>
        </mxCell>
        <mxCell id="hbATpXnq9aw3OvOsap_A-149" value="M" style="resizable=0;html=1;whiteSpace=wrap;align=right;verticalAlign=bottom;" connectable="0" vertex="1" parent="hbATpXnq9aw3OvOsap_A-148">
          <mxGeometry x="1" relative="1" as="geometry" />
        </mxCell>
        <mxCell id="hbATpXnq9aw3OvOsap_A-150" value="Add_a" style="shape=rhombus;perimeter=rhombusPerimeter;whiteSpace=wrap;html=1;align=center;" vertex="1" parent="1">
          <mxGeometry x="-260" y="970" width="120" height="60" as="geometry" />
        </mxCell>
        <mxCell id="hbATpXnq9aw3OvOsap_A-151" value="" style="shape=link;html=1;rounded=0;entryX=0.5;entryY=0;entryDx=0;entryDy=0;exitX=0.5;exitY=1;exitDx=0;exitDy=0;" edge="1" parent="1" source="hbATpXnq9aw3OvOsap_A-1" target="hbATpXnq9aw3OvOsap_A-150">
          <mxGeometry relative="1" as="geometry">
            <mxPoint x="-90" y="510" as="sourcePoint" />
            <mxPoint x="70" y="510" as="targetPoint" />
          </mxGeometry>
        </mxCell>
        <mxCell id="hbATpXnq9aw3OvOsap_A-152" value="M" style="resizable=0;html=1;whiteSpace=wrap;align=right;verticalAlign=bottom;" connectable="0" vertex="1" parent="hbATpXnq9aw3OvOsap_A-151">
          <mxGeometry x="1" relative="1" as="geometry">
            <mxPoint x="-10" as="offset" />
          </mxGeometry>
        </mxCell>
        <mxCell id="hbATpXnq9aw3OvOsap_A-153" value="" style="shape=link;html=1;rounded=0;entryX=0;entryY=0.5;entryDx=0;entryDy=0;" edge="1" parent="1" source="hbATpXnq9aw3OvOsap_A-43" target="hbATpXnq9aw3OvOsap_A-150">
          <mxGeometry relative="1" as="geometry">
            <mxPoint x="-90" y="650" as="sourcePoint" />
            <mxPoint x="70" y="650" as="targetPoint" />
          </mxGeometry>
        </mxCell>
        <mxCell id="hbATpXnq9aw3OvOsap_A-154" value="1" style="resizable=0;html=1;whiteSpace=wrap;align=right;verticalAlign=bottom;" connectable="0" vertex="1" parent="hbATpXnq9aw3OvOsap_A-153">
          <mxGeometry x="1" relative="1" as="geometry" />
        </mxCell>
        <mxCell id="hbATpXnq9aw3OvOsap_A-155" value="belongs_to" style="shape=rhombus;perimeter=rhombusPerimeter;whiteSpace=wrap;html=1;align=center;" vertex="1" parent="1">
          <mxGeometry x="160" y="590" width="120" height="60" as="geometry" />
        </mxCell>
        <mxCell id="hbATpXnq9aw3OvOsap_A-156" value="" style="shape=link;html=1;rounded=0;entryX=0.5;entryY=0;entryDx=0;entryDy=0;exitX=0.674;exitY=1.04;exitDx=0;exitDy=0;exitPerimeter=0;" edge="1" parent="1" source="hbATpXnq9aw3OvOsap_A-1" target="hbATpXnq9aw3OvOsap_A-155">
          <mxGeometry relative="1" as="geometry">
            <mxPoint x="-170" y="600" as="sourcePoint" />
            <mxPoint x="-10" y="600" as="targetPoint" />
          </mxGeometry>
        </mxCell>
        <mxCell id="hbATpXnq9aw3OvOsap_A-157" value="M" style="resizable=0;html=1;whiteSpace=wrap;align=right;verticalAlign=bottom;" connectable="0" vertex="1" parent="hbATpXnq9aw3OvOsap_A-156">
          <mxGeometry x="1" relative="1" as="geometry">
            <mxPoint x="-10" y="6" as="offset" />
          </mxGeometry>
        </mxCell>
        <mxCell id="hbATpXnq9aw3OvOsap_A-158" value="" style="shape=link;html=1;rounded=0;entryX=0.5;entryY=1;entryDx=0;entryDy=0;exitX=1;exitY=0;exitDx=0;exitDy=0;" edge="1" parent="1" source="hbATpXnq9aw3OvOsap_A-136" target="hbATpXnq9aw3OvOsap_A-155">
          <mxGeometry relative="1" as="geometry">
            <mxPoint x="-170" y="730" as="sourcePoint" />
            <mxPoint x="-10" y="600" as="targetPoint" />
          </mxGeometry>
        </mxCell>
        <mxCell id="hbATpXnq9aw3OvOsap_A-159" value="1" style="resizable=0;html=1;whiteSpace=wrap;align=right;verticalAlign=bottom;" connectable="0" vertex="1" parent="hbATpXnq9aw3OvOsap_A-158">
          <mxGeometry x="1" relative="1" as="geometry">
            <mxPoint x="-20" y="6" as="offset" />
          </mxGeometry>
        </mxCell>
        <mxCell id="hbATpXnq9aw3OvOsap_A-160" value="assign_to" style="shape=rhombus;perimeter=rhombusPerimeter;whiteSpace=wrap;html=1;align=center;" vertex="1" parent="1">
          <mxGeometry x="-495" y="390" width="120" height="60" as="geometry" />
        </mxCell>
        <mxCell id="hbATpXnq9aw3OvOsap_A-161" value="" style="endArrow=none;html=1;rounded=0;exitX=1;exitY=0;exitDx=0;exitDy=0;entryX=0.5;entryY=1;entryDx=0;entryDy=0;" edge="1" parent="1" source="hbATpXnq9aw3OvOsap_A-95" target="hbATpXnq9aw3OvOsap_A-160">
          <mxGeometry relative="1" as="geometry">
            <mxPoint x="-390" y="600" as="sourcePoint" />
            <mxPoint x="-450" y="460" as="targetPoint" />
          </mxGeometry>
        </mxCell>
        <mxCell id="hbATpXnq9aw3OvOsap_A-162" value="1" style="resizable=0;html=1;whiteSpace=wrap;align=right;verticalAlign=bottom;" connectable="0" vertex="1" parent="hbATpXnq9aw3OvOsap_A-161">
          <mxGeometry x="1" relative="1" as="geometry">
            <mxPoint x="-25" y="20" as="offset" />
          </mxGeometry>
        </mxCell>
        <mxCell id="hbATpXnq9aw3OvOsap_A-163" value="" style="shape=link;html=1;rounded=0;entryX=1;entryY=0.5;entryDx=0;entryDy=0;exitX=0;exitY=1;exitDx=0;exitDy=0;" edge="1" parent="1" source="hbATpXnq9aw3OvOsap_A-1" target="hbATpXnq9aw3OvOsap_A-160">
          <mxGeometry relative="1" as="geometry">
            <mxPoint x="-390" y="600" as="sourcePoint" />
            <mxPoint x="-230" y="600" as="targetPoint" />
          </mxGeometry>
        </mxCell>
        <mxCell id="hbATpXnq9aw3OvOsap_A-164" value="M" style="resizable=0;html=1;whiteSpace=wrap;align=right;verticalAlign=bottom;" connectable="0" vertex="1" parent="hbATpXnq9aw3OvOsap_A-163">
          <mxGeometry x="1" relative="1" as="geometry">
            <mxPoint x="5" as="offset" />
          </mxGeometry>
        </mxCell>
        <mxCell id="hbATpXnq9aw3OvOsap_A-165" value="assign_to" style="shape=rhombus;perimeter=rhombusPerimeter;whiteSpace=wrap;html=1;align=center;" vertex="1" parent="1">
          <mxGeometry x="-70" y="750" width="120" height="60" as="geometry" />
        </mxCell>
        <mxCell id="hbATpXnq9aw3OvOsap_A-166" value="" style="shape=link;html=1;rounded=0;entryX=0.5;entryY=1;entryDx=0;entryDy=0;exitX=0;exitY=0;exitDx=0;exitDy=0;" edge="1" parent="1" source="hbATpXnq9aw3OvOsap_A-117" target="hbATpXnq9aw3OvOsap_A-165">
          <mxGeometry relative="1" as="geometry">
            <mxPoint x="-390" y="600" as="sourcePoint" />
            <mxPoint x="-230" y="600" as="targetPoint" />
          </mxGeometry>
        </mxCell>
        <mxCell id="hbATpXnq9aw3OvOsap_A-167" value="1" style="resizable=0;html=1;whiteSpace=wrap;align=right;verticalAlign=bottom;" connectable="0" vertex="1" parent="hbATpXnq9aw3OvOsap_A-166">
          <mxGeometry x="1" relative="1" as="geometry">
            <mxPoint x="20" y="10" as="offset" />
          </mxGeometry>
        </mxCell>
        <mxCell id="hbATpXnq9aw3OvOsap_A-168" value="" style="shape=link;html=1;rounded=0;entryX=1;entryY=0.5;entryDx=0;entryDy=0;exitX=0.602;exitY=0.96;exitDx=0;exitDy=0;exitPerimeter=0;" edge="1" parent="1" source="hbATpXnq9aw3OvOsap_A-1" target="hbATpXnq9aw3OvOsap_A-165">
          <mxGeometry relative="1" as="geometry">
            <mxPoint x="-390" y="600" as="sourcePoint" />
            <mxPoint x="-230" y="600" as="targetPoint" />
          </mxGeometry>
        </mxCell>
        <mxCell id="hbATpXnq9aw3OvOsap_A-169" value="M" style="resizable=0;html=1;whiteSpace=wrap;align=right;verticalAlign=bottom;" connectable="0" vertex="1" parent="hbATpXnq9aw3OvOsap_A-168">
          <mxGeometry x="1" relative="1" as="geometry">
            <mxPoint x="-10" y="-10" as="offset" />
          </mxGeometry>
        </mxCell>
        <mxCell id="hbATpXnq9aw3OvOsap_A-173" value="Question" style="whiteSpace=wrap;html=1;align=center;" vertex="1" parent="1">
          <mxGeometry x="-1395" y="-180" width="100" height="40" as="geometry" />
        </mxCell>
        <mxCell id="hbATpXnq9aw3OvOsap_A-174" value="Ques_ID" style="ellipse;whiteSpace=wrap;html=1;align=center;fontStyle=4;" vertex="1" parent="1">
          <mxGeometry x="-1485" y="-290" width="80" height="40" as="geometry" />
        </mxCell>
        <mxCell id="hbATpXnq9aw3OvOsap_A-175" value="" style="endArrow=none;html=1;rounded=0;entryX=0.5;entryY=1;entryDx=0;entryDy=0;exitX=0.166;exitY=-0.01;exitDx=0;exitDy=0;exitPerimeter=0;" edge="1" parent="1" source="hbATpXnq9aw3OvOsap_A-173" target="hbATpXnq9aw3OvOsap_A-174">
          <mxGeometry width="50" height="50" relative="1" as="geometry">
            <mxPoint x="-1105" y="70" as="sourcePoint" />
            <mxPoint x="-1055" y="20" as="targetPoint" />
          </mxGeometry>
        </mxCell>
        <mxCell id="hbATpXnq9aw3OvOsap_A-176" value="Ques_Text" style="ellipse;whiteSpace=wrap;html=1;align=center;" vertex="1" parent="1">
          <mxGeometry x="-1395" y="-300" width="90" height="40" as="geometry" />
        </mxCell>
        <mxCell id="hbATpXnq9aw3OvOsap_A-177" value="" style="endArrow=none;html=1;rounded=0;entryX=0.411;entryY=1.09;entryDx=0;entryDy=0;exitX=0.366;exitY=-0.01;exitDx=0;exitDy=0;exitPerimeter=0;entryPerimeter=0;" edge="1" parent="1" source="hbATpXnq9aw3OvOsap_A-173" target="hbATpXnq9aw3OvOsap_A-176">
          <mxGeometry width="50" height="50" relative="1" as="geometry">
            <mxPoint x="-1105" y="70" as="sourcePoint" />
            <mxPoint x="-1055" y="20" as="targetPoint" />
          </mxGeometry>
        </mxCell>
        <mxCell id="hbATpXnq9aw3OvOsap_A-178" value="Ques_Type" style="ellipse;whiteSpace=wrap;html=1;align=center;" vertex="1" parent="1">
          <mxGeometry x="-1295" y="-290" width="80" height="40" as="geometry" />
        </mxCell>
        <mxCell id="hbATpXnq9aw3OvOsap_A-179" value="" style="endArrow=none;html=1;rounded=0;entryX=0.288;entryY=1.05;entryDx=0;entryDy=0;entryPerimeter=0;exitX=0.822;exitY=-0.03;exitDx=0;exitDy=0;exitPerimeter=0;" edge="1" parent="1" source="hbATpXnq9aw3OvOsap_A-173" target="hbATpXnq9aw3OvOsap_A-178">
          <mxGeometry width="50" height="50" relative="1" as="geometry">
            <mxPoint x="-1105" y="70" as="sourcePoint" />
            <mxPoint x="-1055" y="20" as="targetPoint" />
          </mxGeometry>
        </mxCell>
        <mxCell id="hbATpXnq9aw3OvOsap_A-180" value="Correct_Answer" style="ellipse;shape=doubleEllipse;margin=3;whiteSpace=wrap;html=1;align=center;" vertex="1" parent="1">
          <mxGeometry x="-1205" y="-290" width="90" height="40" as="geometry" />
        </mxCell>
        <mxCell id="hbATpXnq9aw3OvOsap_A-181" value="" style="endArrow=none;html=1;rounded=0;entryX=0.407;entryY=1.03;entryDx=0;entryDy=0;entryPerimeter=0;exitX=1;exitY=0;exitDx=0;exitDy=0;" edge="1" parent="1" source="hbATpXnq9aw3OvOsap_A-173" target="hbATpXnq9aw3OvOsap_A-180">
          <mxGeometry width="50" height="50" relative="1" as="geometry">
            <mxPoint x="-1105" y="70" as="sourcePoint" />
            <mxPoint x="-1055" y="20" as="targetPoint" />
          </mxGeometry>
        </mxCell>
        <mxCell id="hbATpXnq9aw3OvOsap_A-182" value="Exam" style="whiteSpace=wrap;html=1;align=center;" vertex="1" parent="1">
          <mxGeometry x="-400" y="-420" width="100" height="40" as="geometry" />
        </mxCell>
        <mxCell id="hbATpXnq9aw3OvOsap_A-183" value="Ex_ID" style="ellipse;whiteSpace=wrap;html=1;align=center;fontStyle=4;" vertex="1" parent="1">
          <mxGeometry x="-620" y="-530" width="80" height="40" as="geometry" />
        </mxCell>
        <mxCell id="hbATpXnq9aw3OvOsap_A-184" value="" style="endArrow=none;html=1;rounded=0;entryX=0.5;entryY=1;entryDx=0;entryDy=0;exitX=0.13;exitY=-0.07;exitDx=0;exitDy=0;exitPerimeter=0;" edge="1" parent="1" source="hbATpXnq9aw3OvOsap_A-182" target="hbATpXnq9aw3OvOsap_A-183">
          <mxGeometry width="50" height="50" relative="1" as="geometry">
            <mxPoint x="-510" y="-430" as="sourcePoint" />
            <mxPoint x="-460" y="-230" as="targetPoint" />
          </mxGeometry>
        </mxCell>
        <mxCell id="hbATpXnq9aw3OvOsap_A-185" value="Ex_Type" style="ellipse;whiteSpace=wrap;html=1;align=center;" vertex="1" parent="1">
          <mxGeometry x="-530" y="-530" width="80" height="40" as="geometry" />
        </mxCell>
        <mxCell id="hbATpXnq9aw3OvOsap_A-186" value="Start_Time" style="ellipse;whiteSpace=wrap;html=1;align=center;" vertex="1" parent="1">
          <mxGeometry x="-440" y="-530" width="80" height="40" as="geometry" />
        </mxCell>
        <mxCell id="hbATpXnq9aw3OvOsap_A-187" value="End_Time" style="ellipse;whiteSpace=wrap;html=1;align=center;" vertex="1" parent="1">
          <mxGeometry x="-350" y="-530" width="80" height="40" as="geometry" />
        </mxCell>
        <mxCell id="hbATpXnq9aw3OvOsap_A-188" value="Total_Time" style="ellipse;whiteSpace=wrap;html=1;align=center;dashed=1;" vertex="1" parent="1">
          <mxGeometry x="-250" y="-510" width="100" height="40" as="geometry" />
        </mxCell>
        <mxCell id="hbATpXnq9aw3OvOsap_A-189" value="" style="endArrow=none;html=1;rounded=0;entryX=0.5;entryY=1;entryDx=0;entryDy=0;exitX=0.358;exitY=-0.01;exitDx=0;exitDy=0;exitPerimeter=0;" edge="1" parent="1" source="hbATpXnq9aw3OvOsap_A-182" target="hbATpXnq9aw3OvOsap_A-185">
          <mxGeometry width="50" height="50" relative="1" as="geometry">
            <mxPoint x="-510" y="-180" as="sourcePoint" />
            <mxPoint x="-460" y="-230" as="targetPoint" />
          </mxGeometry>
        </mxCell>
        <mxCell id="hbATpXnq9aw3OvOsap_A-190" value="" style="endArrow=none;html=1;rounded=0;entryX=0.243;entryY=0.99;entryDx=0;entryDy=0;entryPerimeter=0;exitX=0.5;exitY=0;exitDx=0;exitDy=0;" edge="1" parent="1" source="hbATpXnq9aw3OvOsap_A-182" target="hbATpXnq9aw3OvOsap_A-186">
          <mxGeometry width="50" height="50" relative="1" as="geometry">
            <mxPoint x="-510" y="-180" as="sourcePoint" />
            <mxPoint x="-460" y="-230" as="targetPoint" />
          </mxGeometry>
        </mxCell>
        <mxCell id="hbATpXnq9aw3OvOsap_A-191" value="" style="endArrow=none;html=1;rounded=0;entryX=0.008;entryY=0.74;entryDx=0;entryDy=0;entryPerimeter=0;exitX=0.862;exitY=-0.01;exitDx=0;exitDy=0;exitPerimeter=0;" edge="1" parent="1" source="hbATpXnq9aw3OvOsap_A-182" target="hbATpXnq9aw3OvOsap_A-187">
          <mxGeometry width="50" height="50" relative="1" as="geometry">
            <mxPoint x="-510" y="-180" as="sourcePoint" />
            <mxPoint x="-460" y="-230" as="targetPoint" />
          </mxGeometry>
        </mxCell>
        <mxCell id="hbATpXnq9aw3OvOsap_A-192" value="" style="endArrow=none;html=1;rounded=0;entryX=0;entryY=0.5;entryDx=0;entryDy=0;exitX=1;exitY=0.25;exitDx=0;exitDy=0;" edge="1" parent="1" source="hbATpXnq9aw3OvOsap_A-182" target="hbATpXnq9aw3OvOsap_A-188">
          <mxGeometry width="50" height="50" relative="1" as="geometry">
            <mxPoint x="-510" y="-180" as="sourcePoint" />
            <mxPoint x="-460" y="-230" as="targetPoint" />
          </mxGeometry>
        </mxCell>
        <mxCell id="hbATpXnq9aw3OvOsap_A-193" value="Allowance_option" style="ellipse;whiteSpace=wrap;html=1;align=center;" vertex="1" parent="1">
          <mxGeometry x="-700" y="-480" width="100" height="40" as="geometry" />
        </mxCell>
        <mxCell id="hbATpXnq9aw3OvOsap_A-194" value="" style="endArrow=none;html=1;rounded=0;entryX=0.5;entryY=1;entryDx=0;entryDy=0;exitX=0;exitY=0.5;exitDx=0;exitDy=0;" edge="1" parent="1" source="hbATpXnq9aw3OvOsap_A-182" target="hbATpXnq9aw3OvOsap_A-193">
          <mxGeometry width="50" height="50" relative="1" as="geometry">
            <mxPoint x="-510" y="-180" as="sourcePoint" />
            <mxPoint x="-460" y="-230" as="targetPoint" />
          </mxGeometry>
        </mxCell>
        <mxCell id="hbATpXnq9aw3OvOsap_A-195" value="Consist_of" style="shape=rhombus;perimeter=rhombusPerimeter;whiteSpace=wrap;html=1;align=center;" vertex="1" parent="1">
          <mxGeometry x="-1075" y="-190" width="120" height="60" as="geometry" />
        </mxCell>
        <mxCell id="hbATpXnq9aw3OvOsap_A-196" value="" style="shape=link;html=1;rounded=0;entryX=1;entryY=0.5;entryDx=0;entryDy=0;exitX=0;exitY=0.75;exitDx=0;exitDy=0;exitPerimeter=0;" edge="1" parent="1" source="hbATpXnq9aw3OvOsap_A-182" target="hbATpXnq9aw3OvOsap_A-195">
          <mxGeometry relative="1" as="geometry">
            <mxPoint x="-590" y="-110" as="sourcePoint" />
            <mxPoint x="-740" y="-70" as="targetPoint" />
          </mxGeometry>
        </mxCell>
        <mxCell id="hbATpXnq9aw3OvOsap_A-197" value="N" style="resizable=0;html=1;whiteSpace=wrap;align=right;verticalAlign=bottom;" connectable="0" vertex="1" parent="hbATpXnq9aw3OvOsap_A-196">
          <mxGeometry x="1" relative="1" as="geometry">
            <mxPoint x="25" as="offset" />
          </mxGeometry>
        </mxCell>
        <mxCell id="hbATpXnq9aw3OvOsap_A-198" value="" style="shape=link;html=1;rounded=0;entryX=0;entryY=0.5;entryDx=0;entryDy=0;exitX=1;exitY=0.5;exitDx=0;exitDy=0;" edge="1" parent="1" source="hbATpXnq9aw3OvOsap_A-173" target="hbATpXnq9aw3OvOsap_A-195">
          <mxGeometry relative="1" as="geometry">
            <mxPoint x="-900" y="-70" as="sourcePoint" />
            <mxPoint x="-740" y="-70" as="targetPoint" />
          </mxGeometry>
        </mxCell>
        <mxCell id="hbATpXnq9aw3OvOsap_A-199" value="M" style="resizable=0;html=1;whiteSpace=wrap;align=right;verticalAlign=bottom;" connectable="0" vertex="1" parent="hbATpXnq9aw3OvOsap_A-198">
          <mxGeometry x="1" relative="1" as="geometry" />
        </mxCell>
        <mxCell id="hbATpXnq9aw3OvOsap_A-200" value="Make_an" style="shape=rhombus;perimeter=rhombusPerimeter;whiteSpace=wrap;html=1;align=center;" vertex="1" parent="1">
          <mxGeometry x="-600" y="160" width="120" height="60" as="geometry" />
        </mxCell>
        <mxCell id="hbATpXnq9aw3OvOsap_A-201" value="Year" style="ellipse;whiteSpace=wrap;html=1;align=center;" vertex="1" parent="1">
          <mxGeometry x="-510" y="60" width="100" height="30" as="geometry" />
        </mxCell>
        <mxCell id="hbATpXnq9aw3OvOsap_A-202" value="" style="endArrow=none;html=1;rounded=0;entryX=0.334;entryY=0.94;entryDx=0;entryDy=0;entryPerimeter=0;exitX=1;exitY=0;exitDx=0;exitDy=0;" edge="1" parent="1" source="hbATpXnq9aw3OvOsap_A-200" target="hbATpXnq9aw3OvOsap_A-201">
          <mxGeometry width="50" height="50" relative="1" as="geometry">
            <mxPoint x="-350" y="230" as="sourcePoint" />
            <mxPoint x="-560" y="40" as="targetPoint" />
          </mxGeometry>
        </mxCell>
        <mxCell id="hbATpXnq9aw3OvOsap_A-203" value="" style="shape=link;html=1;rounded=0;exitX=0.134;exitY=1.088;exitDx=0;exitDy=0;entryX=0.5;entryY=0;entryDx=0;entryDy=0;exitPerimeter=0;" edge="1" parent="1" source="hbATpXnq9aw3OvOsap_A-182" target="hbATpXnq9aw3OvOsap_A-200">
          <mxGeometry relative="1" as="geometry">
            <mxPoint x="-670" y="70" as="sourcePoint" />
            <mxPoint x="-390" y="200" as="targetPoint" />
          </mxGeometry>
        </mxCell>
        <mxCell id="hbATpXnq9aw3OvOsap_A-204" value="N" style="resizable=0;html=1;whiteSpace=wrap;align=right;verticalAlign=bottom;" connectable="0" vertex="1" parent="hbATpXnq9aw3OvOsap_A-203">
          <mxGeometry x="1" relative="1" as="geometry">
            <mxPoint x="-10" as="offset" />
          </mxGeometry>
        </mxCell>
        <mxCell id="hbATpXnq9aw3OvOsap_A-205" value="" style="shape=link;html=1;rounded=0;entryX=0;entryY=0.5;entryDx=0;entryDy=0;" edge="1" parent="1" target="hbATpXnq9aw3OvOsap_A-200">
          <mxGeometry relative="1" as="geometry">
            <mxPoint x="-690" y="270" as="sourcePoint" />
            <mxPoint x="-510" y="70" as="targetPoint" />
          </mxGeometry>
        </mxCell>
        <mxCell id="hbATpXnq9aw3OvOsap_A-206" value="M" style="resizable=0;html=1;whiteSpace=wrap;align=right;verticalAlign=bottom;" connectable="0" vertex="1" parent="hbATpXnq9aw3OvOsap_A-205">
          <mxGeometry x="1" relative="1" as="geometry" />
        </mxCell>
        <mxCell id="hbATpXnq9aw3OvOsap_A-207" value="have_an" style="shape=rhombus;perimeter=rhombusPerimeter;whiteSpace=wrap;html=1;align=center;" vertex="1" parent="1">
          <mxGeometry x="970" y="483.99" width="120" height="60" as="geometry" />
        </mxCell>
        <mxCell id="R-m4J9CmAh3fFjgSCV4U-1" value="" style="shape=link;html=1;rounded=0;entryX=0.5;entryY=0;entryDx=0;entryDy=0;exitX=1;exitY=0.5;exitDx=0;exitDy=0;" edge="1" parent="1" source="hbATpXnq9aw3OvOsap_A-182" target="hbATpXnq9aw3OvOsap_A-207">
          <mxGeometry relative="1" as="geometry">
            <mxPoint x="640" y="190.39" as="sourcePoint" />
            <mxPoint x="960" y="529.6" as="targetPoint" />
          </mxGeometry>
        </mxCell>
        <mxCell id="R-m4J9CmAh3fFjgSCV4U-2" value="M" style="resizable=0;html=1;whiteSpace=wrap;align=right;verticalAlign=bottom;" connectable="0" vertex="1" parent="R-m4J9CmAh3fFjgSCV4U-1">
          <mxGeometry x="1" relative="1" as="geometry">
            <mxPoint x="-1" y="-4" as="offset" />
          </mxGeometry>
        </mxCell>
        <mxCell id="R-m4J9CmAh3fFjgSCV4U-5" value="" style="shape=link;html=1;rounded=0;entryX=0;entryY=0.5;entryDx=0;entryDy=0;exitX=1;exitY=0.25;exitDx=0;exitDy=0;" edge="1" parent="1" source="hbATpXnq9aw3OvOsap_A-54" target="hbATpXnq9aw3OvOsap_A-207">
          <mxGeometry relative="1" as="geometry">
            <mxPoint x="500" y="140" as="sourcePoint" />
            <mxPoint x="660" y="140" as="targetPoint" />
          </mxGeometry>
        </mxCell>
        <mxCell id="R-m4J9CmAh3fFjgSCV4U-6" value="1" style="resizable=0;html=1;whiteSpace=wrap;align=right;verticalAlign=bottom;" connectable="0" vertex="1" parent="R-m4J9CmAh3fFjgSCV4U-5">
          <mxGeometry x="1" relative="1" as="geometry">
            <mxPoint x="-10" y="-5" as="offset" />
          </mxGeometry>
        </mxCell>
        <mxCell id="R-m4J9CmAh3fFjgSCV4U-7" value="assign_degree" style="shape=rhombus;perimeter=rhombusPerimeter;whiteSpace=wrap;html=1;align=center;" vertex="1" parent="1">
          <mxGeometry x="-1160" y="-50" width="120" height="60" as="geometry" />
        </mxCell>
        <mxCell id="R-m4J9CmAh3fFjgSCV4U-8" value="" style="shape=link;html=1;rounded=0;entryX=1;entryY=0.5;entryDx=0;entryDy=0;exitX=0.352;exitY=-0.025;exitDx=0;exitDy=0;exitPerimeter=0;" edge="1" parent="1" source="hbATpXnq9aw3OvOsap_A-19" target="R-m4J9CmAh3fFjgSCV4U-7">
          <mxGeometry relative="1" as="geometry">
            <mxPoint x="-1170" y="180" as="sourcePoint" />
            <mxPoint x="-1010" y="180" as="targetPoint" />
          </mxGeometry>
        </mxCell>
        <mxCell id="R-m4J9CmAh3fFjgSCV4U-9" value="1" style="resizable=0;html=1;whiteSpace=wrap;align=right;verticalAlign=bottom;" connectable="0" vertex="1" parent="R-m4J9CmAh3fFjgSCV4U-8">
          <mxGeometry x="1" relative="1" as="geometry" />
        </mxCell>
        <mxCell id="R-m4J9CmAh3fFjgSCV4U-10" value="" style="shape=link;html=1;rounded=0;entryX=0;entryY=0.5;entryDx=0;entryDy=0;exitX=0.65;exitY=1;exitDx=0;exitDy=0;exitPerimeter=0;" edge="1" parent="1" source="hbATpXnq9aw3OvOsap_A-173" target="R-m4J9CmAh3fFjgSCV4U-7">
          <mxGeometry relative="1" as="geometry">
            <mxPoint x="-1170" y="180" as="sourcePoint" />
            <mxPoint x="-1010" y="180" as="targetPoint" />
          </mxGeometry>
        </mxCell>
        <mxCell id="R-m4J9CmAh3fFjgSCV4U-11" value="M" style="resizable=0;html=1;whiteSpace=wrap;align=right;verticalAlign=bottom;" connectable="0" vertex="1" parent="R-m4J9CmAh3fFjgSCV4U-10">
          <mxGeometry x="1" relative="1" as="geometry">
            <mxPoint x="15" y="-9" as="offset" />
          </mxGeometry>
        </mxCell>
        <mxCell id="R-m4J9CmAh3fFjgSCV4U-12" value="Dgree" style="ellipse;whiteSpace=wrap;html=1;align=center;" vertex="1" parent="1">
          <mxGeometry x="-1155" y="-120" width="100" height="40" as="geometry" />
        </mxCell>
        <mxCell id="R-m4J9CmAh3fFjgSCV4U-13" value="" style="endArrow=none;html=1;rounded=0;entryX=0.5;entryY=1;entryDx=0;entryDy=0;exitX=0.5;exitY=0;exitDx=0;exitDy=0;" edge="1" parent="1" source="R-m4J9CmAh3fFjgSCV4U-7" target="R-m4J9CmAh3fFjgSCV4U-12">
          <mxGeometry width="50" height="50" relative="1" as="geometry">
            <mxPoint x="-1120" y="200" as="sourcePoint" />
            <mxPoint x="-1070" y="150" as="targetPoint" />
          </mxGeometry>
        </mxCell>
        <mxCell id="R-m4J9CmAh3fFjgSCV4U-14" value="Question_Pool" style="whiteSpace=wrap;html=1;align=center;" vertex="1" parent="1">
          <mxGeometry x="-1910" y="-160" width="100" height="40" as="geometry" />
        </mxCell>
        <mxCell id="R-m4J9CmAh3fFjgSCV4U-15" value="Pool_ID" style="ellipse;whiteSpace=wrap;html=1;align=center;fontStyle=4;" vertex="1" parent="1">
          <mxGeometry x="-1980" y="-250" width="100" height="40" as="geometry" />
        </mxCell>
        <mxCell id="R-m4J9CmAh3fFjgSCV4U-16" value="" style="endArrow=none;html=1;rounded=0;entryX=0.5;entryY=1;entryDx=0;entryDy=0;exitX=0.145;exitY=0.015;exitDx=0;exitDy=0;exitPerimeter=0;" edge="1" parent="1" source="R-m4J9CmAh3fFjgSCV4U-14" target="R-m4J9CmAh3fFjgSCV4U-15">
          <mxGeometry width="50" height="50" relative="1" as="geometry">
            <mxPoint x="-1440" y="80" as="sourcePoint" />
            <mxPoint x="-1390" y="30" as="targetPoint" />
          </mxGeometry>
        </mxCell>
        <mxCell id="R-m4J9CmAh3fFjgSCV4U-17" value="Pool_Name" style="ellipse;whiteSpace=wrap;html=1;align=center;" vertex="1" parent="1">
          <mxGeometry x="-1870" y="-250" width="100" height="40" as="geometry" />
        </mxCell>
        <mxCell id="R-m4J9CmAh3fFjgSCV4U-18" value="" style="endArrow=none;html=1;rounded=0;entryX=0.407;entryY=1.065;entryDx=0;entryDy=0;entryPerimeter=0;exitX=0.5;exitY=0;exitDx=0;exitDy=0;" edge="1" parent="1" source="R-m4J9CmAh3fFjgSCV4U-14" target="R-m4J9CmAh3fFjgSCV4U-17">
          <mxGeometry width="50" height="50" relative="1" as="geometry">
            <mxPoint x="-1440" y="80" as="sourcePoint" />
            <mxPoint x="-1390" y="30" as="targetPoint" />
          </mxGeometry>
        </mxCell>
        <mxCell id="R-m4J9CmAh3fFjgSCV4U-19" value="Selection_Type" style="ellipse;whiteSpace=wrap;html=1;align=center;" vertex="1" parent="1">
          <mxGeometry x="-1760" y="-240" width="100" height="40" as="geometry" />
        </mxCell>
        <mxCell id="R-m4J9CmAh3fFjgSCV4U-20" value="" style="endArrow=none;html=1;rounded=0;entryX=0.352;entryY=1.055;entryDx=0;entryDy=0;entryPerimeter=0;exitX=1;exitY=0;exitDx=0;exitDy=0;" edge="1" parent="1" source="R-m4J9CmAh3fFjgSCV4U-14">
          <mxGeometry width="50" height="50" relative="1" as="geometry">
            <mxPoint x="-1440" y="80" as="sourcePoint" />
            <mxPoint x="-1724.7999999999997" y="-197.79999999999995" as="targetPoint" />
          </mxGeometry>
        </mxCell>
        <mxCell id="R-m4J9CmAh3fFjgSCV4U-21" value="consist_of" style="shape=rhombus;perimeter=rhombusPerimeter;whiteSpace=wrap;html=1;align=center;" vertex="1" parent="1">
          <mxGeometry x="-1650" y="-170" width="120" height="60" as="geometry" />
        </mxCell>
        <mxCell id="R-m4J9CmAh3fFjgSCV4U-22" value="" style="endArrow=none;html=1;rounded=0;entryX=1;entryY=0.5;entryDx=0;entryDy=0;exitX=0;exitY=0.5;exitDx=0;exitDy=0;" edge="1" parent="1" source="hbATpXnq9aw3OvOsap_A-173" target="R-m4J9CmAh3fFjgSCV4U-21">
          <mxGeometry relative="1" as="geometry">
            <mxPoint x="-1330" y="-180" as="sourcePoint" />
            <mxPoint x="-1170" y="-180" as="targetPoint" />
          </mxGeometry>
        </mxCell>
        <mxCell id="R-m4J9CmAh3fFjgSCV4U-23" value="M" style="resizable=0;html=1;whiteSpace=wrap;align=right;verticalAlign=bottom;" connectable="0" vertex="1" parent="R-m4J9CmAh3fFjgSCV4U-22">
          <mxGeometry x="1" relative="1" as="geometry">
            <mxPoint x="10" as="offset" />
          </mxGeometry>
        </mxCell>
        <mxCell id="R-m4J9CmAh3fFjgSCV4U-26" value="" style="shape=link;html=1;rounded=0;entryX=0;entryY=0.5;entryDx=0;entryDy=0;" edge="1" parent="1" source="R-m4J9CmAh3fFjgSCV4U-14" target="R-m4J9CmAh3fFjgSCV4U-21">
          <mxGeometry relative="1" as="geometry">
            <mxPoint x="-1330" y="-180" as="sourcePoint" />
            <mxPoint x="-1170" y="-180" as="targetPoint" />
          </mxGeometry>
        </mxCell>
        <mxCell id="R-m4J9CmAh3fFjgSCV4U-27" value="1" style="resizable=0;html=1;whiteSpace=wrap;align=right;verticalAlign=bottom;" connectable="0" vertex="1" parent="R-m4J9CmAh3fFjgSCV4U-26">
          <mxGeometry x="1" relative="1" as="geometry" />
        </mxCell>
        <mxCell id="R-m4J9CmAh3fFjgSCV4U-28" value="select" style="shape=rhombus;perimeter=rhombusPerimeter;whiteSpace=wrap;html=1;align=center;" vertex="1" parent="1">
          <mxGeometry x="-1850" width="120" height="60" as="geometry" />
        </mxCell>
        <mxCell id="R-m4J9CmAh3fFjgSCV4U-29" value="" style="shape=link;html=1;rounded=0;entryX=1;entryY=0.5;entryDx=0;entryDy=0;exitX=0;exitY=0.5;exitDx=0;exitDy=0;" edge="1" parent="1" source="hbATpXnq9aw3OvOsap_A-19" target="R-m4J9CmAh3fFjgSCV4U-28">
          <mxGeometry relative="1" as="geometry">
            <mxPoint x="-1330" as="sourcePoint" />
            <mxPoint x="-1170" as="targetPoint" />
          </mxGeometry>
        </mxCell>
        <mxCell id="R-m4J9CmAh3fFjgSCV4U-30" value="M" style="resizable=0;html=1;whiteSpace=wrap;align=right;verticalAlign=bottom;" connectable="0" vertex="1" parent="R-m4J9CmAh3fFjgSCV4U-29">
          <mxGeometry x="1" relative="1" as="geometry">
            <mxPoint x="5" as="offset" />
          </mxGeometry>
        </mxCell>
        <mxCell id="R-m4J9CmAh3fFjgSCV4U-31" value="" style="endArrow=none;html=1;rounded=0;entryX=0;entryY=0.5;entryDx=0;entryDy=0;exitX=1;exitY=1;exitDx=0;exitDy=0;" edge="1" parent="1" source="R-m4J9CmAh3fFjgSCV4U-14" target="R-m4J9CmAh3fFjgSCV4U-28">
          <mxGeometry relative="1" as="geometry">
            <mxPoint x="-1330" as="sourcePoint" />
            <mxPoint x="-1170" as="targetPoint" />
          </mxGeometry>
        </mxCell>
        <mxCell id="R-m4J9CmAh3fFjgSCV4U-32" value="1" style="resizable=0;html=1;whiteSpace=wrap;align=right;verticalAlign=bottom;" connectable="0" vertex="1" parent="R-m4J9CmAh3fFjgSCV4U-31">
          <mxGeometry x="1" relative="1" as="geometry" />
        </mxCell>
        <mxCell id="R-m4J9CmAh3fFjgSCV4U-33" value="select" style="shape=rhombus;perimeter=rhombusPerimeter;whiteSpace=wrap;html=1;align=center;" vertex="1" parent="1">
          <mxGeometry x="-1250" y="200" width="120" height="60" as="geometry" />
        </mxCell>
        <mxCell id="R-m4J9CmAh3fFjgSCV4U-34" value="" style="shape=link;html=1;rounded=0;entryX=0.5;entryY=0;entryDx=0;entryDy=0;exitX=0.386;exitY=0.955;exitDx=0;exitDy=0;exitPerimeter=0;" edge="1" parent="1" source="hbATpXnq9aw3OvOsap_A-173" target="R-m4J9CmAh3fFjgSCV4U-33">
          <mxGeometry relative="1" as="geometry">
            <mxPoint x="-1280" as="sourcePoint" />
            <mxPoint x="-1120" as="targetPoint" />
          </mxGeometry>
        </mxCell>
        <mxCell id="R-m4J9CmAh3fFjgSCV4U-35" value="N" style="resizable=0;html=1;whiteSpace=wrap;align=right;verticalAlign=bottom;" connectable="0" vertex="1" parent="R-m4J9CmAh3fFjgSCV4U-34">
          <mxGeometry x="1" relative="1" as="geometry">
            <mxPoint x="15" as="offset" />
          </mxGeometry>
        </mxCell>
        <mxCell id="R-m4J9CmAh3fFjgSCV4U-36" value="" style="shape=link;html=1;rounded=0;entryX=1;entryY=0.5;entryDx=0;entryDy=0;exitX=0;exitY=0.75;exitDx=0;exitDy=0;" edge="1" parent="1" source="hbATpXnq9aw3OvOsap_A-19" target="R-m4J9CmAh3fFjgSCV4U-33">
          <mxGeometry relative="1" as="geometry">
            <mxPoint x="-1280" as="sourcePoint" />
            <mxPoint x="-1120" as="targetPoint" />
          </mxGeometry>
        </mxCell>
        <mxCell id="R-m4J9CmAh3fFjgSCV4U-37" value="M" style="resizable=0;html=1;whiteSpace=wrap;align=right;verticalAlign=bottom;" connectable="0" vertex="1" parent="R-m4J9CmAh3fFjgSCV4U-36">
          <mxGeometry x="1" relative="1" as="geometry">
            <mxPoint x="15" as="offset" />
          </mxGeometry>
        </mxCell>
        <mxCell id="R-m4J9CmAh3fFjgSCV4U-38" value="associated_with" style="shape=rhombus;perimeter=rhombusPerimeter;whiteSpace=wrap;html=1;align=center;" vertex="1" parent="1">
          <mxGeometry x="-310" y="490" width="120" height="60" as="geometry" />
        </mxCell>
        <mxCell id="R-m4J9CmAh3fFjgSCV4U-39" value="" style="shape=link;html=1;rounded=0;entryX=0;entryY=0.5;entryDx=0;entryDy=0;exitX=1;exitY=0.5;exitDx=0;exitDy=0;" edge="1" parent="1" source="hbATpXnq9aw3OvOsap_A-95" target="R-m4J9CmAh3fFjgSCV4U-38">
          <mxGeometry relative="1" as="geometry">
            <mxPoint x="-610" y="400" as="sourcePoint" />
            <mxPoint x="-450" y="400" as="targetPoint" />
          </mxGeometry>
        </mxCell>
        <mxCell id="R-m4J9CmAh3fFjgSCV4U-40" value="N" style="resizable=0;html=1;whiteSpace=wrap;align=right;verticalAlign=bottom;" connectable="0" vertex="1" parent="R-m4J9CmAh3fFjgSCV4U-39">
          <mxGeometry x="1" relative="1" as="geometry" />
        </mxCell>
        <mxCell id="R-m4J9CmAh3fFjgSCV4U-41" value="" style="shape=link;html=1;rounded=0;entryX=0.5;entryY=0;entryDx=0;entryDy=0;exitX=0.885;exitY=1.148;exitDx=0;exitDy=0;exitPerimeter=0;" edge="1" parent="1" source="hbATpXnq9aw3OvOsap_A-182" target="R-m4J9CmAh3fFjgSCV4U-38">
          <mxGeometry relative="1" as="geometry">
            <mxPoint x="-610" y="400" as="sourcePoint" />
            <mxPoint x="-450" y="400" as="targetPoint" />
          </mxGeometry>
        </mxCell>
        <mxCell id="R-m4J9CmAh3fFjgSCV4U-42" value="M" style="resizable=0;html=1;whiteSpace=wrap;align=right;verticalAlign=bottom;" connectable="0" vertex="1" parent="R-m4J9CmAh3fFjgSCV4U-41">
          <mxGeometry x="1" relative="1" as="geometry">
            <mxPoint x="20" as="offset" />
          </mxGeometry>
        </mxCell>
        <mxCell id="R-m4J9CmAh3fFjgSCV4U-44" value="belongs_to" style="shape=rhombus;perimeter=rhombusPerimeter;whiteSpace=wrap;html=1;align=center;" vertex="1" parent="1">
          <mxGeometry x="440" y="270" width="120" height="60" as="geometry" />
        </mxCell>
        <mxCell id="R-m4J9CmAh3fFjgSCV4U-45" value="" style="shape=link;html=1;rounded=0;entryX=0;entryY=0.5;entryDx=0;entryDy=0;exitX=1;exitY=0.5;exitDx=0;exitDy=0;" edge="1" parent="1" source="hbATpXnq9aw3OvOsap_A-136" target="R-m4J9CmAh3fFjgSCV4U-44">
          <mxGeometry relative="1" as="geometry">
            <mxPoint x="-50" y="740" as="sourcePoint" />
            <mxPoint x="110" y="740" as="targetPoint" />
          </mxGeometry>
        </mxCell>
        <mxCell id="R-m4J9CmAh3fFjgSCV4U-46" value="N" style="resizable=0;html=1;whiteSpace=wrap;align=right;verticalAlign=bottom;" connectable="0" vertex="1" parent="R-m4J9CmAh3fFjgSCV4U-45">
          <mxGeometry x="1" relative="1" as="geometry" />
        </mxCell>
        <mxCell id="R-m4J9CmAh3fFjgSCV4U-47" value="" style="endArrow=none;html=1;rounded=0;entryX=0.5;entryY=0;entryDx=0;entryDy=0;exitX=1;exitY=0.75;exitDx=0;exitDy=0;" edge="1" parent="1" source="hbATpXnq9aw3OvOsap_A-182" target="R-m4J9CmAh3fFjgSCV4U-44">
          <mxGeometry relative="1" as="geometry">
            <mxPoint x="-50" y="570" as="sourcePoint" />
            <mxPoint x="110" y="570" as="targetPoint" />
          </mxGeometry>
        </mxCell>
        <mxCell id="R-m4J9CmAh3fFjgSCV4U-48" value="M" style="resizable=0;html=1;whiteSpace=wrap;align=right;verticalAlign=bottom;" connectable="0" vertex="1" parent="R-m4J9CmAh3fFjgSCV4U-47">
          <mxGeometry x="1" relative="1" as="geometry">
            <mxPoint x="10" y="1" as="offset" />
          </mxGeometry>
        </mxCell>
        <mxCell id="R-m4J9CmAh3fFjgSCV4U-50" value="assigned_to" style="shape=rhombus;perimeter=rhombusPerimeter;whiteSpace=wrap;html=1;align=center;" vertex="1" parent="1">
          <mxGeometry x="330" y="-80" width="120" height="60" as="geometry" />
        </mxCell>
        <mxCell id="R-m4J9CmAh3fFjgSCV4U-51" value="" style="shape=link;html=1;rounded=0;entryX=0;entryY=0.5;entryDx=0;entryDy=0;exitX=0.5;exitY=1;exitDx=0;exitDy=0;" edge="1" parent="1" source="hbATpXnq9aw3OvOsap_A-182" target="R-m4J9CmAh3fFjgSCV4U-50">
          <mxGeometry relative="1" as="geometry">
            <mxPoint x="180" y="280" as="sourcePoint" />
            <mxPoint x="340" y="280" as="targetPoint" />
          </mxGeometry>
        </mxCell>
        <mxCell id="R-m4J9CmAh3fFjgSCV4U-52" value="1" style="resizable=0;html=1;whiteSpace=wrap;align=right;verticalAlign=bottom;" connectable="0" vertex="1" parent="R-m4J9CmAh3fFjgSCV4U-51">
          <mxGeometry x="1" relative="1" as="geometry">
            <mxPoint x="10" y="-10" as="offset" />
          </mxGeometry>
        </mxCell>
        <mxCell id="R-m4J9CmAh3fFjgSCV4U-53" value="" style="shape=link;html=1;rounded=0;entryX=0.5;entryY=1;entryDx=0;entryDy=0;exitX=0.75;exitY=0;exitDx=0;exitDy=0;" edge="1" parent="1" source="hbATpXnq9aw3OvOsap_A-117" target="R-m4J9CmAh3fFjgSCV4U-50">
          <mxGeometry relative="1" as="geometry">
            <mxPoint x="-100" y="370" as="sourcePoint" />
            <mxPoint x="60" y="370" as="targetPoint" />
          </mxGeometry>
        </mxCell>
        <mxCell id="R-m4J9CmAh3fFjgSCV4U-54" value="1" style="resizable=0;html=1;whiteSpace=wrap;align=right;verticalAlign=bottom;" connectable="0" vertex="1" parent="R-m4J9CmAh3fFjgSCV4U-53">
          <mxGeometry x="1" relative="1" as="geometry">
            <mxPoint x="20" y="20" as="offset" />
          </mxGeometry>
        </mxCell>
        <mxCell id="R-m4J9CmAh3fFjgSCV4U-55" value="Take_an" style="shape=rhombus;perimeter=rhombusPerimeter;whiteSpace=wrap;html=1;align=center;" vertex="1" parent="1">
          <mxGeometry x="-120" y="-100" width="120" height="60" as="geometry" />
        </mxCell>
        <mxCell id="R-m4J9CmAh3fFjgSCV4U-56" value="" style="shape=link;html=1;rounded=0;entryX=0.5;entryY=0;entryDx=0;entryDy=0;exitX=0.25;exitY=1;exitDx=0;exitDy=0;" edge="1" parent="1" source="hbATpXnq9aw3OvOsap_A-182" target="R-m4J9CmAh3fFjgSCV4U-55">
          <mxGeometry relative="1" as="geometry">
            <mxPoint x="220" y="100" as="sourcePoint" />
            <mxPoint x="380" y="100" as="targetPoint" />
          </mxGeometry>
        </mxCell>
        <mxCell id="R-m4J9CmAh3fFjgSCV4U-57" value="N" style="resizable=0;html=1;whiteSpace=wrap;align=right;verticalAlign=bottom;" connectable="0" vertex="1" parent="R-m4J9CmAh3fFjgSCV4U-56">
          <mxGeometry x="1" relative="1" as="geometry">
            <mxPoint x="10" y="-10" as="offset" />
          </mxGeometry>
        </mxCell>
        <mxCell id="R-m4J9CmAh3fFjgSCV4U-58" value="" style="shape=link;html=1;rounded=0;entryX=0.5;entryY=1;entryDx=0;entryDy=0;exitX=0.629;exitY=-0.038;exitDx=0;exitDy=0;exitPerimeter=0;" edge="1" parent="1" source="hbATpXnq9aw3OvOsap_A-1" target="R-m4J9CmAh3fFjgSCV4U-55">
          <mxGeometry relative="1" as="geometry">
            <mxPoint x="-30" as="sourcePoint" />
            <mxPoint x="130" as="targetPoint" />
          </mxGeometry>
        </mxCell>
        <mxCell id="R-m4J9CmAh3fFjgSCV4U-59" value="M" style="resizable=0;html=1;whiteSpace=wrap;align=right;verticalAlign=bottom;" connectable="0" vertex="1" parent="R-m4J9CmAh3fFjgSCV4U-58">
          <mxGeometry x="1" relative="1" as="geometry">
            <mxPoint x="20" y="20" as="offset" />
          </mxGeometry>
        </mxCell>
        <mxCell id="R-m4J9CmAh3fFjgSCV4U-60" value="Answer" style="whiteSpace=wrap;html=1;align=center;" vertex="1" parent="1">
          <mxGeometry x="1090" y="350" width="100" height="40" as="geometry" />
        </mxCell>
        <mxCell id="R-m4J9CmAh3fFjgSCV4U-61" value="Ans_ID" style="ellipse;whiteSpace=wrap;html=1;align=center;fontStyle=4;" vertex="1" parent="1">
          <mxGeometry x="880" y="200" width="100" height="40" as="geometry" />
        </mxCell>
        <mxCell id="R-m4J9CmAh3fFjgSCV4U-62" value="Answer_&lt;span style=&quot;white-space: pre;&quot;&gt;&#x9;&lt;/span&gt;Text" style="ellipse;whiteSpace=wrap;html=1;align=center;" vertex="1" parent="1">
          <mxGeometry x="1000" y="200" width="100" height="40" as="geometry" />
        </mxCell>
        <mxCell id="R-m4J9CmAh3fFjgSCV4U-63" value="Answer_Validation" style="ellipse;whiteSpace=wrap;html=1;align=center;" vertex="1" parent="1">
          <mxGeometry x="1120" y="200" width="100" height="40" as="geometry" />
        </mxCell>
        <mxCell id="R-m4J9CmAh3fFjgSCV4U-64" value="" style="endArrow=none;html=1;rounded=0;entryX=0.315;entryY=1.028;entryDx=0;entryDy=0;entryPerimeter=0;exitX=0.25;exitY=0;exitDx=0;exitDy=0;" edge="1" parent="1" source="R-m4J9CmAh3fFjgSCV4U-60" target="R-m4J9CmAh3fFjgSCV4U-61">
          <mxGeometry width="50" height="50" relative="1" as="geometry">
            <mxPoint x="520" y="380" as="sourcePoint" />
            <mxPoint x="570" y="330" as="targetPoint" />
          </mxGeometry>
        </mxCell>
        <mxCell id="R-m4J9CmAh3fFjgSCV4U-65" value="" style="endArrow=none;html=1;rounded=0;entryX=0.267;entryY=1.002;entryDx=0;entryDy=0;entryPerimeter=0;exitX=0.5;exitY=0;exitDx=0;exitDy=0;" edge="1" parent="1" source="R-m4J9CmAh3fFjgSCV4U-60" target="R-m4J9CmAh3fFjgSCV4U-62">
          <mxGeometry width="50" height="50" relative="1" as="geometry">
            <mxPoint x="520" y="380" as="sourcePoint" />
            <mxPoint x="570" y="330" as="targetPoint" />
          </mxGeometry>
        </mxCell>
        <mxCell id="R-m4J9CmAh3fFjgSCV4U-66" value="" style="endArrow=none;html=1;rounded=0;entryX=0.262;entryY=1.135;entryDx=0;entryDy=0;entryPerimeter=0;exitX=0.921;exitY=-0.052;exitDx=0;exitDy=0;exitPerimeter=0;" edge="1" parent="1" source="R-m4J9CmAh3fFjgSCV4U-60" target="R-m4J9CmAh3fFjgSCV4U-63">
          <mxGeometry width="50" height="50" relative="1" as="geometry">
            <mxPoint x="520" y="380" as="sourcePoint" />
            <mxPoint x="570" y="330" as="targetPoint" />
          </mxGeometry>
        </mxCell>
        <mxCell id="R-m4J9CmAh3fFjgSCV4U-67" value="Provide_an" style="shape=rhombus;perimeter=rhombusPerimeter;whiteSpace=wrap;html=1;align=center;" vertex="1" parent="1">
          <mxGeometry x="590" y="400" width="120" height="60" as="geometry" />
        </mxCell>
        <mxCell id="R-m4J9CmAh3fFjgSCV4U-68" value="" style="shape=link;html=1;rounded=0;entryX=0;entryY=0.5;entryDx=0;entryDy=0;" edge="1" parent="1" source="hbATpXnq9aw3OvOsap_A-1" target="R-m4J9CmAh3fFjgSCV4U-67">
          <mxGeometry relative="1" as="geometry">
            <mxPoint x="460" y="350" as="sourcePoint" />
            <mxPoint x="620" y="350" as="targetPoint" />
          </mxGeometry>
        </mxCell>
        <mxCell id="R-m4J9CmAh3fFjgSCV4U-69" value="N" style="resizable=0;html=1;whiteSpace=wrap;align=right;verticalAlign=bottom;" connectable="0" vertex="1" parent="R-m4J9CmAh3fFjgSCV4U-68">
          <mxGeometry x="1" relative="1" as="geometry" />
        </mxCell>
        <mxCell id="R-m4J9CmAh3fFjgSCV4U-70" value="" style="shape=link;html=1;rounded=0;entryX=1;entryY=0.5;entryDx=0;entryDy=0;exitX=0;exitY=0.5;exitDx=0;exitDy=0;" edge="1" parent="1" source="R-m4J9CmAh3fFjgSCV4U-60" target="R-m4J9CmAh3fFjgSCV4U-67">
          <mxGeometry relative="1" as="geometry">
            <mxPoint x="460" y="350" as="sourcePoint" />
            <mxPoint x="620" y="350" as="targetPoint" />
          </mxGeometry>
        </mxCell>
        <mxCell id="R-m4J9CmAh3fFjgSCV4U-71" value="M" style="resizable=0;html=1;whiteSpace=wrap;align=right;verticalAlign=bottom;" connectable="0" vertex="1" parent="R-m4J9CmAh3fFjgSCV4U-70">
          <mxGeometry x="1" relative="1" as="geometry">
            <mxPoint x="11" as="offset" />
          </mxGeometry>
        </mxCell>
        <mxCell id="R-m4J9CmAh3fFjgSCV4U-74" value="select_a" style="shape=rhombus;perimeter=rhombusPerimeter;whiteSpace=wrap;html=1;align=center;" vertex="1" parent="1">
          <mxGeometry x="-460" y="210" width="120" height="60" as="geometry" />
        </mxCell>
        <mxCell id="R-m4J9CmAh3fFjgSCV4U-75" value="" style="endArrow=none;html=1;rounded=0;entryX=1;entryY=0.5;entryDx=0;entryDy=0;exitX=0;exitY=0.75;exitDx=0;exitDy=0;" edge="1" parent="1" source="hbATpXnq9aw3OvOsap_A-1" target="R-m4J9CmAh3fFjgSCV4U-74">
          <mxGeometry relative="1" as="geometry">
            <mxPoint x="-380" y="170" as="sourcePoint" />
            <mxPoint x="-220" y="170" as="targetPoint" />
          </mxGeometry>
        </mxCell>
        <mxCell id="R-m4J9CmAh3fFjgSCV4U-76" value="N" style="resizable=0;html=1;whiteSpace=wrap;align=right;verticalAlign=bottom;" connectable="0" vertex="1" parent="R-m4J9CmAh3fFjgSCV4U-75">
          <mxGeometry x="1" relative="1" as="geometry">
            <mxPoint x="10" as="offset" />
          </mxGeometry>
        </mxCell>
        <mxCell id="R-m4J9CmAh3fFjgSCV4U-77" value="" style="endArrow=none;html=1;rounded=0;entryX=0;entryY=0.5;entryDx=0;entryDy=0;" edge="1" parent="1" target="R-m4J9CmAh3fFjgSCV4U-74">
          <mxGeometry relative="1" as="geometry">
            <mxPoint x="-690" y="270" as="sourcePoint" />
            <mxPoint x="-220" y="170" as="targetPoint" />
          </mxGeometry>
        </mxCell>
        <mxCell id="R-m4J9CmAh3fFjgSCV4U-78" value="M" style="resizable=0;html=1;whiteSpace=wrap;align=right;verticalAlign=bottom;" connectable="0" vertex="1" parent="R-m4J9CmAh3fFjgSCV4U-77">
          <mxGeometry x="1" relative="1" as="geometry" />
        </mxCell>
        <mxCell id="R-m4J9CmAh3fFjgSCV4U-80" value="Exam_Date" style="ellipse;whiteSpace=wrap;html=1;align=center;" vertex="1" parent="1">
          <mxGeometry x="-395" y="-110" width="100" height="40" as="geometry" />
        </mxCell>
        <mxCell id="R-m4J9CmAh3fFjgSCV4U-81" value="" style="endArrow=none;html=1;rounded=0;entryX=0.5;entryY=1;entryDx=0;entryDy=0;exitX=0.5;exitY=0;exitDx=0;exitDy=0;" edge="1" parent="1" source="R-m4J9CmAh3fFjgSCV4U-74" target="R-m4J9CmAh3fFjgSCV4U-80">
          <mxGeometry width="50" height="50" relative="1" as="geometry">
            <mxPoint x="-320" y="200" as="sourcePoint" />
            <mxPoint x="-270" y="150" as="targetPoint" />
          </mxGeometry>
        </mxCell>
        <mxCell id="R-m4J9CmAh3fFjgSCV4U-82" value="Start_time" style="ellipse;whiteSpace=wrap;html=1;align=center;" vertex="1" parent="1">
          <mxGeometry x="-280" y="-100" width="100" height="40" as="geometry" />
        </mxCell>
        <mxCell id="R-m4J9CmAh3fFjgSCV4U-83" value="" style="endArrow=none;html=1;rounded=0;exitX=0.5;exitY=0;exitDx=0;exitDy=0;" edge="1" parent="1" source="R-m4J9CmAh3fFjgSCV4U-74" target="R-m4J9CmAh3fFjgSCV4U-82">
          <mxGeometry width="50" height="50" relative="1" as="geometry">
            <mxPoint x="-320" y="200" as="sourcePoint" />
            <mxPoint x="-270" y="150" as="targetPoint" />
          </mxGeometry>
        </mxCell>
        <mxCell id="R-m4J9CmAh3fFjgSCV4U-84" value="End_time" style="ellipse;whiteSpace=wrap;html=1;align=center;" vertex="1" parent="1">
          <mxGeometry x="-250" y="-20" width="100" height="40" as="geometry" />
        </mxCell>
        <mxCell id="R-m4J9CmAh3fFjgSCV4U-85" value="" style="endArrow=none;html=1;rounded=0;exitX=0.5;exitY=0;exitDx=0;exitDy=0;" edge="1" parent="1" source="R-m4J9CmAh3fFjgSCV4U-74" target="R-m4J9CmAh3fFjgSCV4U-84">
          <mxGeometry width="50" height="50" relative="1" as="geometry">
            <mxPoint x="-320" y="200" as="sourcePoint" />
            <mxPoint x="-270" y="150" as="targetPoint" />
          </mxGeometry>
        </mxCell>
        <mxCell id="R-m4J9CmAh3fFjgSCV4U-86" value="Result" style="whiteSpace=wrap;html=1;align=center;" vertex="1" parent="1">
          <mxGeometry x="990" y="-40" width="100" height="40" as="geometry" />
        </mxCell>
        <mxCell id="R-m4J9CmAh3fFjgSCV4U-87" value="Res_Id" style="ellipse;whiteSpace=wrap;html=1;align=center;fontStyle=4;" vertex="1" parent="1">
          <mxGeometry x="950" y="-180" width="100" height="40" as="geometry" />
        </mxCell>
        <mxCell id="R-m4J9CmAh3fFjgSCV4U-88" value="" style="endArrow=none;html=1;rounded=0;entryX=0.326;entryY=1.062;entryDx=0;entryDy=0;entryPerimeter=0;exitX=0.25;exitY=0;exitDx=0;exitDy=0;" edge="1" parent="1" source="R-m4J9CmAh3fFjgSCV4U-86" target="R-m4J9CmAh3fFjgSCV4U-87">
          <mxGeometry width="50" height="50" relative="1" as="geometry">
            <mxPoint x="630" y="170" as="sourcePoint" />
            <mxPoint x="680" y="120" as="targetPoint" />
          </mxGeometry>
        </mxCell>
        <mxCell id="R-m4J9CmAh3fFjgSCV4U-89" value="Score" style="ellipse;whiteSpace=wrap;html=1;align=center;" vertex="1" parent="1">
          <mxGeometry x="1060" y="-180" width="100" height="40" as="geometry" />
        </mxCell>
        <mxCell id="R-m4J9CmAh3fFjgSCV4U-90" value="" style="endArrow=none;html=1;rounded=0;entryX=0;entryY=1;entryDx=0;entryDy=0;exitX=0.75;exitY=0;exitDx=0;exitDy=0;" edge="1" parent="1" source="R-m4J9CmAh3fFjgSCV4U-86" target="R-m4J9CmAh3fFjgSCV4U-89">
          <mxGeometry width="50" height="50" relative="1" as="geometry">
            <mxPoint x="630" y="170" as="sourcePoint" />
            <mxPoint x="680" y="120" as="targetPoint" />
          </mxGeometry>
        </mxCell>
        <mxCell id="R-m4J9CmAh3fFjgSCV4U-92" value="calculate_final" style="shape=rhombus;perimeter=rhombusPerimeter;whiteSpace=wrap;html=1;align=center;" vertex="1" parent="1">
          <mxGeometry x="700" y="110" width="120" height="60" as="geometry" />
        </mxCell>
        <mxCell id="R-m4J9CmAh3fFjgSCV4U-93" value="" style="shape=link;html=1;rounded=0;entryX=1;entryY=0.5;entryDx=0;entryDy=0;exitX=0;exitY=0.5;exitDx=0;exitDy=0;" edge="1" parent="1" source="R-m4J9CmAh3fFjgSCV4U-86" target="R-m4J9CmAh3fFjgSCV4U-92">
          <mxGeometry relative="1" as="geometry">
            <mxPoint x="980" y="-10" as="sourcePoint" />
            <mxPoint x="810" y="150" as="targetPoint" />
          </mxGeometry>
        </mxCell>
        <mxCell id="R-m4J9CmAh3fFjgSCV4U-94" value="N" style="resizable=0;html=1;whiteSpace=wrap;align=right;verticalAlign=bottom;" connectable="0" vertex="1" parent="R-m4J9CmAh3fFjgSCV4U-93">
          <mxGeometry x="1" relative="1" as="geometry">
            <mxPoint x="10" y="-10" as="offset" />
          </mxGeometry>
        </mxCell>
        <mxCell id="R-m4J9CmAh3fFjgSCV4U-95" value="M" style="resizable=0;html=1;whiteSpace=wrap;align=right;verticalAlign=bottom;" connectable="0" vertex="1" parent="1">
          <mxGeometry x="839.9966683716794" y="149.9984297678312" as="geometry">
            <mxPoint x="5" y="7" as="offset" />
          </mxGeometry>
        </mxCell>
        <mxCell id="R-m4J9CmAh3fFjgSCV4U-96" value="" style="shape=link;html=1;rounded=0;entryX=0.5;entryY=1;entryDx=0;entryDy=0;exitX=0.9;exitY=0;exitDx=0;exitDy=0;exitPerimeter=0;" edge="1" parent="1" source="hbATpXnq9aw3OvOsap_A-54" target="R-m4J9CmAh3fFjgSCV4U-92">
          <mxGeometry relative="1" as="geometry">
            <mxPoint x="620" y="320" as="sourcePoint" />
            <mxPoint x="780" y="320" as="targetPoint" />
          </mxGeometry>
        </mxCell>
        <mxCell id="R-m4J9CmAh3fFjgSCV4U-97" value="N" style="resizable=0;html=1;whiteSpace=wrap;align=right;verticalAlign=bottom;" connectable="0" vertex="1" parent="R-m4J9CmAh3fFjgSCV4U-96">
          <mxGeometry x="1" relative="1" as="geometry">
            <mxPoint x="20" y="20" as="offset" />
          </mxGeometry>
        </mxCell>
        <mxCell id="R-m4J9CmAh3fFjgSCV4U-98" value="M" style="resizable=0;html=1;whiteSpace=wrap;align=right;verticalAlign=bottom;" connectable="0" vertex="1" parent="1">
          <mxGeometry x="749.9966683716794" y="179.9984297678312" as="geometry">
            <mxPoint x="5" y="7" as="offset" />
          </mxGeometry>
        </mxCell>
        <mxCell id="R-m4J9CmAh3fFjgSCV4U-99" value="" style="endArrow=none;html=1;rounded=0;entryX=0;entryY=0.5;entryDx=0;entryDy=0;" edge="1" parent="1" target="R-m4J9CmAh3fFjgSCV4U-92">
          <mxGeometry relative="1" as="geometry">
            <mxPoint x="10" y="310" as="sourcePoint" />
            <mxPoint x="780" y="320" as="targetPoint" />
          </mxGeometry>
        </mxCell>
        <mxCell id="R-m4J9CmAh3fFjgSCV4U-100" value="N" style="resizable=0;html=1;whiteSpace=wrap;align=right;verticalAlign=bottom;" connectable="0" vertex="1" parent="R-m4J9CmAh3fFjgSCV4U-99">
          <mxGeometry x="1" relative="1" as="geometry">
            <mxPoint y="20" as="offset" />
          </mxGeometry>
        </mxCell>
        <mxCell id="R-m4J9CmAh3fFjgSCV4U-101" value="M" style="resizable=0;html=1;whiteSpace=wrap;align=right;verticalAlign=bottom;" connectable="0" vertex="1" parent="1">
          <mxGeometry x="729.9966683716794" y="129.9984297678312" as="geometry">
            <mxPoint x="-31" y="10" as="offset" />
          </mxGeometry>
        </mxCell>
      </root>
    </mxGraphModel>
  </diagram>
  <diagram id="-BZ0ff9cZ_Cm8y7vT02F" name="Page-2">
    <mxGraphModel dx="946" dy="625" grid="1" gridSize="10" guides="1" tooltips="1" connect="1" arrows="1" fold="1" page="1" pageScale="1" pageWidth="827" pageHeight="1169" math="0" shadow="0">
      <root>
        <mxCell id="0" />
        <mxCell id="1" parent="0" />
      </root>
    </mxGraphModel>
  </diagram>
</mxfile>
